<svg xmlns="http://www.w3.org/2000/svg" width="762" height="327" viewBox="0 0 762 327">
<g>
<path d="M 158.55 194.08 C158.86,194.59 158.98,194.99 158.81,194.98 C157.80,194.93 155.68,192.95 153.56,190.09 L 151.14 186.80 L 153.22 182.65 C154.37,180.37 156.93,176.09 158.91,173.15 C160.88,170.20 162.98,166.97 163.56,165.97 C165.49,162.63 177.64,151.35 183.11,147.81 C190.58,142.97 197.67,139.00 198.83,139.00 C199.93,139.00 202.00,144.33 202.00,147.15 C202.00,148.17 201.39,149.00 200.65,149.00 C199.91,149.00 198.22,149.95 196.90,151.12 C195.58,152.28 192.80,154.32 190.73,155.64 C184.25,159.78 170.56,174.36 164.14,183.96 C160.75,189.02 158.24,193.57 158.55,194.08 ZM 131.29 203.97 C131.61,207.66 128.29,207.95 127.32,204.32 C125.86,198.80 126.57,176.86 128.46,169.00 C129.46,164.88 130.48,160.04 130.75,158.25 C131.01,156.46 131.66,155.00 132.21,155.00 C133.46,155.00 132.72,170.07 131.03,179.00 C129.94,184.78 129.98,188.73 131.29,203.97 Z" fill="rgb(7,31,70)"/>
<path d="M 128.57 139.11 C128.87,139.60 128.46,140.00 127.65,140.00 C125.19,140.00 120.00,132.01 120.00,128.22 C120.00,125.83 118.97,123.58 116.50,120.57 C114.57,118.22 113.00,116.07 113.00,115.81 C113.00,115.54 114.69,114.83 116.75,114.24 C132.47,109.69 169.67,109.86 176.31,114.50 C178.11,115.76 178.06,115.91 175.35,117.56 C166.79,122.79 161.24,126.49 159.09,128.38 C156.89,130.32 156.74,130.34 157.36,128.61 C157.93,127.03 157.80,126.92 156.57,127.94 C155.75,128.62 154.65,128.90 154.11,128.57 C153.56,128.23 152.76,128.56 152.31,129.29 C151.87,130.02 150.10,131.18 148.38,131.87 C146.67,132.57 144.68,134.23 143.96,135.57 C143.13,137.13 141.74,138.03 140.08,138.08 C138.66,138.13 136.47,138.28 135.21,138.42 C133.95,138.56 132.71,138.34 132.46,137.93 C132.20,137.52 131.10,137.42 130.01,137.71 C128.92,137.99 128.27,138.63 128.57,139.11 ZM 187.54 178.43 C185.87,179.14 183.25,180.98 181.72,182.53 C180.14,184.12 179.21,184.61 179.57,183.67 C179.93,182.73 179.73,182.00 179.11,182.00 C178.50,182.00 178.00,182.42 178.00,182.92 C178.00,183.43 176.65,183.17 175.00,182.35 C173.35,181.53 172.00,180.19 172.00,179.38 C172.00,174.25 181.01,163.77 192.38,155.68 C195.61,153.38 198.85,151.07 199.58,150.54 C202.07,148.72 202.32,150.99 200.54,159.43 C199.03,166.65 198.17,168.55 194.67,172.51 C192.42,175.06 189.21,177.73 187.54,178.43 Z" fill="rgb(26,74,129)"/>
<path d="M 128.57 139.11 C128.27,138.63 128.92,137.99 130.01,137.71 C131.10,137.42 132.20,137.52 132.46,137.93 C132.65,138.25 133.46,138.45 134.40,138.46 L 133.50 138.50 L 132.92 155.50 C132.89,156.36 132.85,157.23 132.81,158.10 C132.75,156.19 132.56,155.00 132.21,155.00 C131.66,155.00 131.01,156.46 130.75,158.25 C130.48,160.04 129.46,164.88 128.46,169.00 C126.57,176.86 125.86,198.80 127.32,204.32 C127.84,206.25 129.02,207.08 129.96,206.87 C129.48,207.26 128.87,207.65 128.09,208.07 C126.21,209.09 123.62,210.84 122.33,211.96 C121.04,213.08 119.64,214.00 119.21,214.00 C118.79,214.00 117.79,214.90 117.00,216.00 C116.21,217.10 115.02,218.00 114.36,218.00 C113.70,218.00 113.02,218.34 112.83,218.75 C112.65,219.16 111.08,220.29 109.35,221.25 C107.61,222.21 105.70,223.00 105.10,223.00 C103.41,223.00 103.56,113.40 105.25,112.31 C105.94,111.86 118.84,111.35 133.92,111.18 C136.13,111.15 138.22,111.13 140.22,111.12 C131.22,111.53 122.53,112.56 116.75,114.24 C114.69,114.83 113.00,115.54 113.00,115.81 C113.00,116.07 114.57,118.22 116.50,120.57 C118.97,123.58 120.00,125.83 120.00,128.22 C120.00,132.01 125.19,140.00 127.65,140.00 C128.46,140.00 128.87,139.60 128.57,139.11 ZM 600.63 159.66 C596.41,162.57 594.98,163.00 589.56,163.00 C584.33,163.00 582.64,162.53 578.92,160.04 C571.47,155.05 569.56,151.19 569.15,140.33 C568.83,131.70 569.01,130.67 571.48,126.44 C576.36,118.12 586.66,114.36 596.17,117.44 C603.22,119.72 607.36,123.84 609.52,130.70 C613.03,141.85 609.41,153.61 600.63,159.66 ZM 452.74 221.04 C449.17,223.06 446.92,223.48 438.50,223.70 C433.00,223.84 427.94,223.70 427.25,223.39 C426.31,222.97 426.00,217.49 426.00,200.92 L 426.00 179.00 L 437.60 179.00 C450.29,179.00 453.67,179.96 458.38,184.88 C461.90,188.55 462.44,190.77 462.47,201.59 C462.50,209.91 462.27,211.01 459.74,214.66 C458.22,216.85 455.07,219.73 452.74,221.04 ZM 158.55 194.08 C158.24,193.57 160.75,189.02 164.14,183.96 C170.56,174.36 184.25,159.78 190.73,155.64 C192.80,154.32 195.58,152.28 196.90,151.12 C198.22,149.95 199.91,149.00 200.65,149.00 C201.26,149.00 201.78,148.44 201.94,147.68 C201.98,148.17 202.00,148.65 202.00,149.12 C202.00,150.10 201.83,151.77 201.56,153.70 C202.00,150.03 201.37,149.23 199.58,150.54 C198.85,151.07 195.61,153.38 192.38,155.68 C181.01,163.77 172.00,174.25 172.00,179.38 C172.00,180.19 173.35,181.53 175.00,182.35 C176.65,183.17 178.00,183.43 178.00,182.92 C178.00,182.42 178.50,182.00 179.11,182.00 C179.73,182.00 179.93,182.73 179.57,183.67 C179.21,184.61 180.14,184.12 181.72,182.53 C183.25,180.98 185.87,179.14 187.54,178.43 C188.54,178.01 190.09,176.89 191.66,175.51 C191.37,175.80 191.07,176.10 190.76,176.41 L 182.93 184.33 L 185.80 187.91 C189.24,192.22 194.75,199.53 197.50,203.45 C198.60,205.01 200.29,207.00 201.25,207.87 C202.21,208.73 203.00,209.93 203.00,210.51 C203.00,211.10 204.59,213.27 206.54,215.34 C209.66,218.64 212.57,223.77 211.78,224.55 C211.21,225.11 188.36,225.76 184.29,225.33 C180.57,224.94 179.67,224.30 176.38,219.69 C174.33,216.84 172.18,214.04 171.58,213.48 C170.99,212.91 170.05,211.72 169.50,210.83 C168.95,209.94 164.59,204.18 159.81,198.03 L 155.37 192.32 C156.81,193.94 158.09,194.95 158.81,194.98 C158.98,194.99 158.86,194.59 158.55,194.08 ZM 448.79 154.19 L 448.50 162.50 L 444.29 162.81 L 440.07 163.11 L 439.79 140.05 L 439.50 117.00 L 450.00 117.00 C467.08,117.02 471.86,119.52 472.77,128.91 C473.41,135.59 472.47,138.76 468.87,142.12 L 465.86 144.93 L 470.42 153.31 C472.93,157.91 474.69,161.98 474.33,162.34 C473.96,162.70 471.69,163.00 469.28,163.00 C465.09,163.00 464.80,162.81 462.93,158.75 C458.26,148.61 456.56,146.52 452.71,146.19 L 449.08 145.88 ZM 345.79 215.69 L 345.50 223.50 L 337.00 224.11 L 337.00 178.85 L 350.48 179.17 L 363.97 179.50 L 367.12 182.66 C369.60,185.14 370.38,186.90 370.76,190.90 C371.35,197.00 369.77,201.31 365.95,204.03 L 363.17 206.02 L 365.75 210.76 L 366.15 211.48 C370.37,219.21 371.98,222.17 371.14,223.30 C370.62,224.00 369.15,224.00 366.77,224.00 C366.65,224.00 366.53,224.00 366.41,224.00 C363.31,224.00 361.79,223.54 361.47,222.50 C360.63,219.82 360.04,218.58 357.15,213.50 C354.55,208.91 353.98,208.48 350.20,208.19 L 346.09 207.89 ZM 304.08 146.00 L 303.50 162.50 L 295.00 163.11 L 295.00 117.00 L 305.25 117.01 C317.67,117.01 322.08,118.12 325.40,122.06 C330.38,127.99 329.98,135.96 324.40,141.53 L 320.99 144.95 L 325.49 153.08 C327.96,157.56 329.74,161.62 329.43,162.11 C329.13,162.60 327.15,163.00 325.04,163.00 C321.56,163.00 320.89,162.54 318.09,158.33 C316.39,155.76 315.00,153.12 315.00,152.46 C315.00,151.81 314.07,150.08 312.93,148.63 C311.42,146.71 309.94,146.00 307.47,146.00 ZM 627.79 154.19 L 627.50 162.50 L 619.00 163.11 L 619.00 117.00 L 629.32 117.00 C646.83,117.00 652.41,120.50 652.42,131.50 C652.43,136.72 649.09,143.00 646.31,143.00 C644.26,143.00 644.71,144.63 649.09,153.05 C651.34,157.37 652.88,161.38 652.53,161.95 C652.17,162.53 650.21,163.00 648.16,163.00 C644.54,163.00 644.34,162.80 639.96,154.75 C635.71,146.91 635.30,146.48 631.78,146.19 L 628.08 145.88 ZM 498.00 209.17 L 497.50 223.50 L 489.00 224.11 L 489.00 179.00 L 493.43 179.00 C497.94,179.00 498.97,179.82 503.50,187.06 C509.60,196.79 516.33,205.91 517.07,205.46 C517.58,205.14 518.00,199.06 518.00,191.94 L 518.00 179.00 L 527.04 179.00 L 526.77 201.25 L 526.50 223.50 L 522.58 223.50 C518.74,223.50 518.53,223.30 511.36,213.00 C507.33,207.23 503.74,201.82 503.37,201.00 C503.00,200.18 501.76,198.45 500.60,197.17 L 498.50 194.83 ZM 385.69 222.75 C385.24,223.44 382.90,224.00 380.44,224.00 C377.56,224.00 376.00,223.56 375.99,222.75 C375.99,222.06 377.27,218.12 378.83,214.00 C380.40,209.88 382.37,204.48 383.23,202.00 C384.08,199.52 385.26,196.15 385.84,194.50 C386.43,192.85 387.89,188.67 389.09,185.21 L 391.28 178.91 L 397.81 179.21 L 404.34 179.50 L 406.75 186.50 C408.07,190.35 409.77,195.52 410.51,198.00 C411.26,200.48 413.50,206.96 415.48,212.41 C417.65,218.36 418.72,222.68 418.17,223.23 C417.67,223.73 415.52,223.99 413.38,223.82 C409.71,223.52 409.42,223.25 408.00,218.72 L 406.50 213.95 L 397.53 214.22 L 388.56 214.50 L 387.53 218.00 C386.96,219.93 386.14,222.06 385.69,222.75 ZM 530.80 161.80 C529.52,163.08 523.79,163.45 522.67,162.33 C522.30,161.97 522.00,151.62 522.00,139.33 L 522.00 117.00 L 532.00 117.00 L 532.00 136.07 L 551.50 135.50 L 552.08 117.00 L 561.04 117.00 L 560.77 139.75 L 560.50 162.50 L 556.29 162.81 L 552.07 163.11 L 551.79 153.31 L 551.50 143.50 L 532.00 142.93 L 532.00 151.76 C532.00,157.30 531.55,161.05 530.80,161.80 ZM 567.78 220.65 C564.41,222.99 562.48,223.53 556.60,223.77 C548.41,224.11 544.66,222.66 540.02,217.37 C529.66,205.57 534.21,182.81 547.67,179.08 C558.37,176.10 569.26,179.80 573.41,187.82 C575.52,191.90 574.84,193.00 570.19,193.01 C567.28,193.02 565.97,192.37 563.97,189.94 C559.30,184.26 549.84,184.94 546.00,191.23 C543.48,195.37 543.15,207.05 545.50,209.00 C546.33,209.68 547.00,210.86 547.00,211.61 C547.00,213.67 553.96,216.23 557.89,215.61 C561.81,215.00 566.00,211.49 566.00,208.83 C566.00,207.32 565.19,207.00 561.44,207.00 L 556.88 207.00 L 557.50 199.50 L 566.30 199.34 L 575.10 199.18 L 574.90 204.84 C574.63,212.80 572.59,217.32 567.78,220.65 ZM 508.89 159.97 C505.22,162.62 503.88,163.00 498.10,162.98 C488.35,162.94 483.65,160.20 480.52,152.71 L 478.97 149.00 L 483.99 149.00 C487.69,149.00 489.00,149.38 489.00,150.44 C489.00,152.70 493.08,155.00 497.09,155.00 C500.87,155.00 506.00,151.89 506.00,149.60 C506.00,147.08 501.25,143.92 496.27,143.13 C490.03,142.14 482.45,137.82 481.64,134.78 C479.70,127.53 482.16,120.95 487.63,118.77 C494.69,115.97 499.60,115.66 505.14,117.65 C510.70,119.65 514.00,122.97 514.00,126.59 C514.00,128.45 513.31,129.04 510.53,129.56 C507.48,130.13 506.73,129.83 504.44,127.11 C502.26,124.52 501.10,124.00 497.53,124.00 C494.02,124.00 492.92,124.47 491.55,126.57 C488.78,130.80 491.12,133.00 501.95,136.38 C509.75,138.81 511.48,139.74 513.09,142.38 C516.86,148.56 515.23,155.37 508.89,159.97 ZM 382.81 153.00 L 379.48 162.50 L 367.39 163.09 L 363.29 151.29 C361.04,144.81 358.42,137.25 357.48,134.50 C356.53,131.75 354.73,126.69 353.47,123.25 L 351.18 117.00 L 361.73 117.00 L 363.24 121.25 C365.56,127.78 370.71,144.17 371.41,147.25 C371.76,148.76 372.41,150.00 372.86,150.00 C373.88,150.00 376.00,145.47 376.00,143.30 C376.00,142.42 377.31,138.06 378.92,133.60 C380.52,129.15 382.34,123.59 382.96,121.25 L 384.08 117.00 L 389.11 117.00 C393.43,117.00 394.06,117.25 393.61,118.75 C393.33,119.71 392.55,122.75 391.90,125.50 C391.24,128.25 390.11,131.69 389.38,133.14 C388.65,134.60 387.63,137.52 387.10,139.64 C386.57,141.77 384.64,147.77 382.81,153.00 ZM 430.50 154.79 L 430.50 162.50 L 416.44 162.78 C408.71,162.93 402.07,162.74 401.69,162.36 C401.31,161.98 401.00,151.62 401.00,139.33 L 401.00 117.00 L 431.00 117.00 L 431.00 123.93 L 420.75 124.22 L 410.50 124.50 L 410.50 135.50 L 430.12 136.07 L 429.50 142.50 L 410.50 143.50 L 410.50 154.50 L 420.50 154.65 ZM 690.12 155.00 L 689.50 162.50 L 660.00 163.05 L 660.00 117.00 L 690.00 117.00 L 690.00 119.94 C690.00,121.56 689.63,123.11 689.18,123.39 C688.73,123.67 684.01,123.97 678.68,124.07 L 669.00 124.25 L 669.00 136.00 L 689.13 136.00 L 688.50 142.50 L 669.00 143.07 L 669.00 148.43 C669.00,154.92 669.14,155.00 681.14,155.00 ZM 316.04 186.09 L 315.50 223.50 L 307.00 224.11 L 307.00 186.00 L 293.00 186.00 L 293.00 179.00 L 331.13 179.00 L 330.50 185.50 ZM 586.50 154.32 C594.80,156.48 601.00,150.02 601.00,139.20 C601.00,132.01 598.23,127.24 592.89,125.21 C589.81,124.04 588.80,124.06 585.68,125.36 C580.56,127.50 578.01,132.13 578.00,139.30 C578.00,147.24 581.22,152.94 586.50,154.32 ZM 435.00 186.00 L 435.00 215.00 L 440.78 215.00 C447.51,215.00 450.56,213.30 452.61,208.40 C454.39,204.14 454.39,196.87 452.62,192.62 C451.00,188.76 445.32,186.00 438.98,186.00 ZM 346.04 117.00 L 345.50 162.50 L 341.46 162.80 C339.24,162.96 337.11,162.77 336.71,162.38 C336.32,161.99 336.00,151.62 336.00,139.33 L 336.00 117.00 ZM 481.04 179.00 L 480.50 223.50 L 476.46 223.80 C474.24,223.96 472.11,223.77 471.71,223.38 C471.32,222.99 471.00,212.84 471.00,200.83 L 471.00 179.00 ZM 449.00 123.72 L 449.00 139.00 L 454.05 139.00 C458.07,139.00 459.59,138.50 461.55,136.55 C464.43,133.66 464.70,130.08 462.25,127.06 C460.97,125.48 458.96,124.75 454.75,124.31 ZM 628.67 138.33 C629.03,138.70 631.30,139.00 633.71,139.00 C639.14,139.00 643.00,135.69 643.00,131.03 C643.00,127.07 638.31,124.01 632.25,124.00 L 628.00 124.00 L 628.00 130.83 C628.00,134.59 628.30,137.97 628.67,138.33 ZM 346.75 199.43 C347.89,200.59 357.66,199.52 359.44,198.05 C360.36,197.29 361.00,195.18 361.00,192.93 C361.00,187.91 358.32,186.00 351.28,186.00 L 346.00 186.00 L 346.00 192.33 C346.00,195.82 346.34,199.01 346.75,199.43 ZM 304.41 137.64 C304.75,138.51 306.57,139.00 309.51,139.00 C315.06,139.00 319.00,135.76 319.00,131.20 C319.00,126.84 315.85,124.59 309.69,124.54 L 304.50 124.50 L 304.20 130.39 C304.03,133.63 304.13,136.89 304.41,137.64 ZM 392.53 202.81 L 391.82 206.11 L 397.16 205.81 L 402.50 205.50 L 402.16 202.07 C401.72,197.58 398.47,189.36 397.39,190.00 C396.93,190.27 396.42,191.31 396.27,192.30 C396.12,193.30 395.38,195.32 394.62,196.80 C393.86,198.29 392.92,200.99 392.53,202.81 ZM 135.09 138.43 C135.13,138.43 135.17,138.42 135.21,138.42 C136.47,138.28 138.66,138.13 140.08,138.08 C141.74,138.03 143.13,137.13 143.96,135.57 C144.68,134.23 146.67,132.57 148.38,131.87 C150.10,131.18 151.87,130.02 152.31,129.29 C152.76,128.56 153.56,128.23 154.11,128.57 C154.65,128.90 155.75,128.62 156.57,127.94 C157.80,126.92 157.93,127.03 157.36,128.61 C156.74,130.34 156.89,130.32 159.09,128.38 C161.06,126.64 165.89,123.39 173.27,118.84 C164.52,124.27 158.46,128.64 153.94,132.77 C148.42,137.82 148.32,137.86 140.94,138.18 ZM 196.40 170.44 C198.52,167.64 199.31,165.28 200.54,159.43 C200.73,158.56 200.89,157.76 201.02,157.02 C200.80,158.27 200.56,159.53 200.30,160.72 C199.20,165.71 198.74,167.57 196.40,170.44 ZM 167.03 111.94 C171.77,112.48 174.60,113.31 176.26,114.47 L 176.30 114.50 C174.71,113.39 171.39,112.54 167.03,111.94 ZM 130.28 189.17 C130.17,184.85 130.43,182.21 131.03,179.00 C131.16,178.36 131.27,177.68 131.38,176.98 C131.28,177.79 131.17,178.47 131.07,179.00 C130.46,182.15 130.19,184.94 130.28,189.17 ZM 198.83 139.00 C199.47,139.00 200.19,140.18 200.78,141.90 C200.13,140.27 199.37,139.00 198.83,139.00 ZM 152.32 188.40 L 151.11 186.85 L 153.21 182.67 C153.28,182.54 153.35,182.40 153.43,182.25 C153.35,182.39 153.29,182.52 153.22,182.65 L 151.14 186.80 ZM 131.29 203.97 C131.21,203.04 131.13,202.15 131.06,201.30 C131.13,202.12 131.21,202.97 131.29,203.86 C131.30,204.01 131.31,204.16 131.31,204.30 C131.30,204.19 131.30,204.08 131.29,203.97 ZM 176.39 116.91 C177.79,116.00 177.86,115.67 176.89,114.93 C177.87,115.68 177.80,116.00 176.39,116.91 Z" fill="rgb(29,53,105)"/>
<path d="M 211.64 144.20 C209.91,145.14 208.15,145.93 207.72,145.95 C206.44,146.03 205.85,143.47 206.18,139.36 L 206.50 135.50 L 216.00 132.37 C221.23,130.64 232.25,127.13 240.50,124.56 C248.75,121.99 256.80,119.48 258.39,118.97 C264.70,116.98 261.48,118.77 231.14,134.19 C222.15,138.76 213.37,143.27 211.64,144.20 ZM 176.60 116.77 C177.70,116.03 177.80,115.69 177.10,115.10 C177.81,115.70 177.71,116.03 176.60,116.77 Z" fill="rgb(33,109,15)"/>
<path d="M 152.32 188.40 L 153.56 190.09 C154.17,190.91 154.78,191.67 155.37,192.32 L 159.81 198.03 C160.15,198.47 160.49,198.91 160.83,199.35 C156.50,194.00 152.17,189.00 151.64,189.01 C150.16,189.02 143.98,209.37 143.99,214.18 C144.00,216.21 143.50,219.14 142.90,220.68 L 141.79 223.50 L 140.79 221.00 C136.99,211.58 133.39,189.68 134.98,185.73 C135.67,184.00 135.89,183.90 135.94,185.25 C136.06,188.66 139.08,186.98 141.04,182.42 C142.12,179.90 143.00,177.28 143.00,176.61 C143.00,174.09 147.05,170.94 149.81,171.32 C152.23,171.65 152.50,172.09 152.47,175.73 C152.44,178.56 152.81,179.63 153.68,179.29 C154.46,178.99 157.61,174.97 160.40,170.90 C159.91,171.64 159.41,172.40 158.91,173.15 C157.04,175.93 154.65,179.90 153.43,182.25 C153.35,182.40 153.28,182.54 153.21,182.67 L 151.11 186.85 ZM 225.83 136.90 C227.55,136.01 229.34,135.10 231.14,134.19 C259.59,119.73 264.19,117.25 259.45,118.65 C263.75,117.24 266.73,116.21 267.24,115.93 C269.30,114.82 277.16,112.04 278.29,112.01 C278.72,112.01 277.93,113.68 276.54,115.73 C275.14,117.78 273.99,120.15 273.97,120.98 C273.92,123.23 271.29,126.30 270.07,125.54 C269.48,125.18 269.00,125.43 269.00,126.11 C269.00,126.78 268.74,127.07 268.42,126.75 C268.10,126.43 266.97,127.03 265.92,128.08 C264.10,129.90 259.04,130.71 257.72,129.39 C257.38,129.05 257.74,127.81 258.51,126.63 C260.20,124.05 258.98,121.41 256.54,122.35 C255.62,122.70 255.13,123.41 255.45,123.92 C256.30,125.30 253.89,126.47 250.86,126.15 C249.25,125.98 237.90,130.95 225.83,136.90 ZM 169.44 210.73 C169.46,210.77 169.48,210.80 169.50,210.83 C170.05,211.72 170.98,212.91 171.58,213.47 C170.98,212.91 170.05,211.72 169.50,210.83 C169.48,210.80 169.46,210.77 169.44,210.73 ZM 177.21 115.19 C177.79,115.73 177.65,116.06 176.62,116.76 C176.62,116.76 176.61,116.77 176.61,116.77 C177.71,116.03 177.81,115.69 177.10,115.10 C177.14,115.13 177.18,115.16 177.21,115.19 Z" fill="rgb(58,133,43)"/>
<path d="M 0.00 163.50 L 0.00 0.00 L 381.00 0.00 L 762.00 0.00 L 762.00 163.50 L 762.00 327.00 L 381.00 327.00 L 0.00 327.00 L 0.00 163.50 ZM 211.78 224.55 C212.57,223.77 209.66,218.64 206.54,215.34 C204.59,213.27 203.00,211.10 203.00,210.51 C203.00,209.93 202.21,208.73 201.25,207.87 C200.29,207.00 198.60,205.01 197.50,203.45 C194.75,199.53 189.24,192.22 185.80,187.91 L 182.93 184.33 L 190.76 176.41 C198.42,168.67 198.63,168.33 200.30,160.72 C201.23,156.44 202.00,151.22 202.00,149.12 C202.00,144.65 200.23,139.00 198.83,139.00 C197.67,139.00 190.58,142.97 183.11,147.81 C177.64,151.35 165.49,162.63 163.56,165.97 C160.72,170.87 154.79,178.87 153.68,179.29 C152.81,179.63 152.44,178.56 152.47,175.73 C152.50,172.09 152.23,171.65 149.81,171.32 C147.05,170.94 143.00,174.09 143.00,176.61 C143.00,177.28 142.12,179.90 141.04,182.42 C139.08,186.98 136.06,188.66 135.94,185.25 C135.89,183.90 135.67,184.00 134.98,185.73 C133.39,189.68 136.99,211.58 140.79,221.00 L 141.79 223.50 L 142.90 220.68 C143.50,219.14 144.00,216.21 143.99,214.18 C143.98,209.37 150.16,189.02 151.64,189.01 C152.62,189.00 166.49,205.96 169.50,210.83 C170.05,211.73 170.99,212.91 171.58,213.48 C172.18,214.04 174.33,216.84 176.38,219.69 C179.67,224.30 180.57,224.94 184.29,225.33 C188.36,225.76 211.21,225.11 211.78,224.55 ZM 315.77 204.79 L 316.04 186.09 L 323.27 185.79 L 330.50 185.50 L 330.81 182.25 L 331.13 179.00 L 312.06 179.00 L 293.00 179.00 L 293.00 182.50 L 293.00 186.00 L 300.00 186.00 L 307.00 186.00 L 307.00 205.06 L 307.00 224.11 L 311.25 223.81 L 315.50 223.50 L 315.77 204.79 ZM 345.79 215.69 L 346.09 207.89 L 350.20 208.19 C353.98,208.48 354.55,208.91 357.15,213.50 C360.04,218.58 360.63,219.82 361.47,222.50 C361.79,223.54 363.31,224.00 366.41,224.00 C373.10,224.00 373.11,224.25 365.75,210.76 L 363.17 206.02 L 365.95 204.03 C369.77,201.31 371.35,197.00 370.76,190.90 C370.38,186.90 369.60,185.14 367.12,182.66 L 363.97 179.50 L 350.48 179.17 L 337.00 178.85 L 337.00 201.48 L 337.00 224.11 L 341.25 223.81 L 345.50 223.50 L 345.79 215.69 ZM 385.69 222.75 C386.14,222.06 386.96,219.93 387.53,218.00 L 388.56 214.50 L 397.53 214.22 L 406.50 213.95 L 408.00 218.72 C409.42,223.25 409.71,223.52 413.38,223.82 C415.52,223.99 417.67,223.73 418.17,223.23 C418.72,222.68 417.65,218.36 415.48,212.41 C413.50,206.96 411.26,200.48 410.51,198.00 C409.77,195.52 408.07,190.35 406.75,186.50 L 404.34 179.50 L 397.81 179.21 L 391.28 178.91 L 389.09 185.21 C387.89,188.67 386.43,192.85 385.84,194.50 C385.26,196.15 384.08,199.52 383.23,202.00 C382.37,204.48 380.40,209.88 378.83,214.00 C377.27,218.12 375.99,222.06 375.99,222.75 C376.00,223.56 377.56,224.00 380.44,224.00 C382.90,224.00 385.24,223.44 385.69,222.75 ZM 452.74 221.04 C455.07,219.73 458.22,216.85 459.74,214.66 C462.27,211.01 462.50,209.91 462.47,201.59 C462.44,190.77 461.90,188.55 458.38,184.88 C453.67,179.96 450.29,179.00 437.60,179.00 L 426.00 179.00 L 426.00 200.92 C426.00,217.49 426.31,222.97 427.25,223.39 C427.94,223.70 433.00,223.84 438.50,223.70 C446.92,223.48 449.17,223.06 452.74,221.04 ZM 480.77 201.25 L 481.04 179.00 L 476.02 179.00 L 471.00 179.00 L 471.00 200.83 C471.00,212.84 471.32,222.99 471.71,223.38 C472.11,223.77 474.24,223.96 476.46,223.80 L 480.50 223.50 L 480.77 201.25 ZM 498.00 209.17 L 498.50 194.83 L 500.60 197.17 C501.76,198.45 503.00,200.18 503.37,201.00 C503.74,201.82 507.33,207.23 511.36,213.00 C518.53,223.30 518.74,223.50 522.58,223.50 L 526.50 223.50 L 526.77 201.25 L 527.04 179.00 L 522.52 179.00 L 518.00 179.00 L 518.00 191.94 C518.00,199.06 517.58,205.14 517.07,205.46 C516.33,205.91 509.60,196.79 503.50,187.06 C498.97,179.82 497.94,179.00 493.43,179.00 L 489.00 179.00 L 489.00 201.56 L 489.00 224.11 L 493.25 223.81 L 497.50 223.50 L 498.00 209.17 ZM 567.78 220.65 C572.59,217.32 574.63,212.80 574.90,204.84 L 575.10 199.18 L 566.30 199.34 L 557.50 199.50 L 557.19 203.25 L 556.88 207.00 L 561.44 207.00 C565.19,207.00 566.00,207.32 566.00,208.83 C566.00,211.49 561.81,215.00 557.89,215.61 C553.96,216.23 547.00,213.67 547.00,211.61 C547.00,210.86 546.33,209.68 545.50,209.00 C543.15,207.05 543.48,195.37 546.00,191.23 C549.84,184.94 559.30,184.26 563.97,189.94 C565.97,192.37 567.28,193.02 570.19,193.01 C574.84,193.00 575.52,191.90 573.41,187.82 C569.26,179.80 558.37,176.10 547.67,179.08 C534.21,182.81 529.66,205.57 540.02,217.37 C544.66,222.66 548.41,224.11 556.60,223.77 C562.48,223.53 564.41,222.99 567.78,220.65 ZM 109.35 221.25 C111.08,220.29 112.65,219.16 112.83,218.75 C113.02,218.34 113.70,218.00 114.36,218.00 C115.02,218.00 116.21,217.10 117.00,216.00 C117.79,214.90 118.79,214.00 119.21,214.00 C119.64,214.00 121.04,213.08 122.33,211.96 C123.62,210.84 126.21,209.09 128.09,208.07 C130.64,206.69 131.45,205.63 131.29,203.86 C129.99,189.32 129.95,184.79 131.07,179.00 C131.76,175.43 132.59,164.85 132.92,155.50 L 133.50 138.50 L 140.94 138.18 C148.32,137.86 148.42,137.82 153.94,132.77 C158.81,128.32 165.47,123.59 175.35,117.56 C178.09,115.89 178.13,115.78 176.26,114.47 C172.28,111.68 161.61,110.85 133.92,111.18 C118.84,111.35 105.94,111.86 105.25,112.31 C103.56,113.40 103.41,223.00 105.10,223.00 C105.70,223.00 107.61,222.21 109.35,221.25 ZM 303.79 154.25 L 304.08 146.00 L 307.47 146.00 C309.94,146.00 311.42,146.71 312.93,148.63 C314.07,150.08 315.00,151.81 315.00,152.46 C315.00,153.12 316.39,155.76 318.09,158.33 C320.89,162.54 321.56,163.00 325.04,163.00 C327.15,163.00 329.13,162.60 329.43,162.11 C329.74,161.62 327.96,157.56 325.49,153.08 L 320.99 144.95 L 324.40 141.53 C329.98,135.96 330.38,127.99 325.40,122.06 C322.08,118.12 317.67,117.01 305.25,117.01 L 295.00 117.00 L 295.00 140.06 L 295.00 163.11 L 299.25 162.81 L 303.50 162.50 L 303.79 154.25 ZM 345.77 139.75 L 346.04 117.00 L 341.02 117.00 L 336.00 117.00 L 336.00 139.33 C336.00,151.62 336.32,161.99 336.71,162.38 C337.11,162.77 339.24,162.96 341.46,162.80 L 345.50 162.50 L 345.77 139.75 ZM 382.81 153.00 C384.64,147.77 386.57,141.77 387.10,139.64 C387.63,137.52 388.65,134.60 389.38,133.14 C390.11,131.69 391.24,128.25 391.90,125.50 C392.55,122.75 393.33,119.71 393.61,118.75 C394.06,117.25 393.43,117.00 389.11,117.00 L 384.08 117.00 L 382.96 121.25 C382.34,123.59 380.52,129.15 378.92,133.60 C377.31,138.06 376.00,142.42 376.00,143.30 C376.00,145.47 373.88,150.00 372.86,150.00 C372.41,150.00 371.76,148.76 371.41,147.25 C370.71,144.17 365.56,127.78 363.24,121.25 L 361.73 117.00 L 356.45 117.00 L 351.18 117.00 L 353.47 123.25 C354.73,126.69 356.53,131.75 357.48,134.50 C358.42,137.25 361.04,144.81 363.29,151.29 L 367.39 163.09 L 373.43 162.79 L 379.48 162.50 L 382.81 153.00 ZM 430.50 158.65 L 430.50 154.79 L 420.50 154.65 L 410.50 154.50 L 410.50 149.00 L 410.50 143.50 L 420.00 143.00 L 429.50 142.50 L 429.81 139.29 L 430.12 136.07 L 420.31 135.79 L 410.50 135.50 L 410.50 130.00 L 410.50 124.50 L 420.75 124.22 L 431.00 123.93 L 431.00 120.47 L 431.00 117.00 L 416.00 117.00 L 401.00 117.00 L 401.00 139.33 C401.00,151.62 401.31,161.98 401.69,162.36 C402.07,162.74 408.71,162.93 416.44,162.78 L 430.50 162.50 L 430.50 158.65 ZM 448.79 154.19 L 449.08 145.88 L 452.71 146.19 C456.56,146.52 458.26,148.61 462.93,158.75 C464.80,162.81 465.09,163.00 469.28,163.00 C471.69,163.00 473.96,162.70 474.33,162.34 C474.69,161.98 472.93,157.91 470.42,153.31 L 465.86 144.93 L 468.87 142.12 C472.47,138.76 473.41,135.59 472.77,128.91 C471.86,119.52 467.08,117.02 450.00,117.00 L 439.50 117.00 L 439.79 140.05 L 440.07 163.11 L 444.29 162.81 L 448.50 162.50 L 448.79 154.19 ZM 508.89 159.97 C515.23,155.37 516.86,148.56 513.09,142.38 C511.48,139.74 509.75,138.81 501.95,136.38 C491.12,133.00 488.78,130.80 491.55,126.57 C492.92,124.47 494.02,124.00 497.53,124.00 C501.10,124.00 502.26,124.52 504.44,127.11 C506.73,129.83 507.48,130.13 510.53,129.56 C513.31,129.04 514.00,128.45 514.00,126.59 C514.00,122.97 510.70,119.65 505.14,117.65 C499.60,115.66 494.69,115.97 487.63,118.77 C482.16,120.95 479.70,127.53 481.64,134.78 C482.45,137.82 490.03,142.14 496.27,143.13 C501.25,143.92 506.00,147.08 506.00,149.60 C506.00,151.89 500.87,155.00 497.09,155.00 C493.08,155.00 489.00,152.70 489.00,150.44 C489.00,149.38 487.69,149.00 483.99,149.00 L 478.97 149.00 L 480.52 152.71 C483.65,160.20 488.35,162.94 498.10,162.98 C503.88,163.00 505.22,162.62 508.89,159.97 ZM 530.80 161.80 C531.55,161.05 532.00,157.30 532.00,151.76 L 532.00 142.93 L 541.75 143.21 L 551.50 143.50 L 551.79 153.31 L 552.07 163.11 L 556.29 162.81 L 560.50 162.50 L 560.77 139.75 L 561.04 117.00 L 556.56 117.00 L 552.08 117.00 L 551.79 126.25 L 551.50 135.50 L 541.75 135.79 L 532.00 136.07 L 532.00 126.54 L 532.00 117.00 L 527.00 117.00 L 522.00 117.00 L 522.00 139.33 C522.00,151.62 522.30,161.97 522.67,162.33 C523.79,163.45 529.52,163.08 530.80,161.80 ZM 600.63 159.66 C609.41,153.61 613.03,141.85 609.52,130.70 C607.36,123.84 603.22,119.72 596.17,117.44 C586.66,114.36 576.36,118.12 571.48,126.44 C569.01,130.67 568.83,131.70 569.15,140.33 C569.56,151.19 571.47,155.05 578.92,160.04 C582.64,162.53 584.33,163.00 589.56,163.00 C594.98,163.00 596.41,162.57 600.63,159.66 ZM 627.79 154.19 L 628.08 145.88 L 631.78 146.19 C635.30,146.48 635.71,146.91 639.96,154.75 C644.34,162.80 644.54,163.00 648.16,163.00 C650.21,163.00 652.17,162.53 652.53,161.95 C652.88,161.38 651.34,157.37 649.09,153.05 C644.71,144.63 644.26,143.00 646.31,143.00 C649.09,143.00 652.43,136.72 652.42,131.50 C652.41,120.50 646.83,117.00 629.32,117.00 L 619.00 117.00 L 619.00 140.06 L 619.00 163.11 L 623.25 162.81 L 627.50 162.50 L 627.79 154.19 ZM 689.81 158.75 L 690.12 155.00 L 681.14 155.00 C669.14,155.00 669.00,154.92 669.00,148.43 L 669.00 143.07 L 678.75 142.79 L 688.50 142.50 L 688.81 139.25 L 689.13 136.00 L 679.06 136.00 L 669.00 136.00 L 669.00 130.13 L 669.00 124.25 L 678.68 124.07 C684.01,123.97 688.73,123.67 689.18,123.39 C689.63,123.11 690.00,121.56 690.00,119.94 L 690.00 117.00 L 675.00 117.00 L 660.00 117.00 L 660.00 140.03 L 660.00 163.05 L 674.75 162.78 L 689.50 162.50 L 689.81 158.75 ZM 211.64 144.20 C227.32,135.72 248.61,125.91 250.86,126.15 C253.89,126.47 256.30,125.30 255.45,123.92 C255.13,123.41 255.62,122.70 256.54,122.35 C258.98,121.41 260.20,124.05 258.51,126.63 C257.74,127.81 257.38,129.05 257.72,129.39 C259.04,130.71 264.10,129.90 265.92,128.08 C266.97,127.03 268.10,126.43 268.42,126.75 C268.74,127.07 269.00,126.78 269.00,126.11 C269.00,125.43 269.48,125.18 270.07,125.54 C271.29,126.30 273.92,123.23 273.97,120.98 C273.99,120.15 275.14,117.78 276.54,115.73 C277.93,113.68 278.72,112.01 278.29,112.01 C277.16,112.04 269.30,114.82 267.24,115.93 C266.28,116.45 256.73,119.60 246.00,122.94 C235.27,126.27 222.00,130.47 216.50,132.25 L 206.50 135.50 L 206.18 139.36 C205.85,143.47 206.44,146.03 207.72,145.95 C208.15,145.93 209.91,145.14 211.64,144.20 ZM 346.75 199.43 C346.34,199.01 346.00,195.82 346.00,192.33 L 346.00 186.00 L 351.28 186.00 C358.32,186.00 361.00,187.91 361.00,192.93 C361.00,195.18 360.36,197.29 359.44,198.05 C357.66,199.52 347.89,200.59 346.75,199.43 ZM 392.53 202.81 C392.92,200.99 393.86,198.29 394.62,196.80 C395.38,195.32 396.12,193.30 396.27,192.30 C396.42,191.31 396.93,190.27 397.39,190.00 C398.47,189.36 401.72,197.58 402.16,202.07 L 402.50 205.50 L 397.16 205.81 L 391.82 206.11 L 392.53 202.81 ZM 435.00 200.50 L 435.00 186.00 L 438.98 186.00 C445.32,186.00 451.00,188.76 452.62,192.62 C454.39,196.87 454.39,204.14 452.61,208.40 C450.56,213.30 447.51,215.00 440.78,215.00 L 435.00 215.00 L 435.00 200.50 ZM 304.41 137.64 C304.13,136.89 304.03,133.63 304.20,130.39 L 304.50 124.50 L 309.69 124.54 C315.85,124.59 319.00,126.84 319.00,131.20 C319.00,135.76 315.06,139.00 309.51,139.00 C306.57,139.00 304.75,138.51 304.41,137.64 ZM 449.00 131.36 L 449.00 123.72 L 454.75 124.31 C458.96,124.75 460.97,125.48 462.25,127.06 C464.70,130.08 464.43,133.66 461.55,136.55 C459.59,138.50 458.07,139.00 454.05,139.00 L 449.00 139.00 L 449.00 131.36 ZM 586.50 154.32 C581.22,152.94 578.00,147.24 578.00,139.30 C578.01,132.13 580.56,127.50 585.68,125.36 C588.80,124.06 589.81,124.04 592.89,125.21 C598.23,127.24 601.00,132.01 601.00,139.20 C601.00,150.02 594.80,156.48 586.50,154.32 ZM 628.67 138.33 C628.30,137.97 628.00,134.59 628.00,130.83 L 628.00 124.00 L 632.25 124.00 C638.31,124.01 643.00,127.07 643.00,131.03 C643.00,135.69 639.14,139.00 633.71,139.00 C631.30,139.00 629.03,138.70 628.67,138.33 Z" fill="rgb(77,153,57)"/>
<path d="M 0.00 163.50 L 0.00 0.00 L 381.00 0.00 L 762.00 0.00 L 762.00 163.50 L 762.00 327.00 L 381.00 327.00 L 0.00 327.00 L 0.00 163.50 ZM 211.78 224.55 C212.57,223.77 209.66,218.64 206.54,215.34 C204.59,213.27 203.00,211.10 203.00,210.51 C203.00,209.93 202.21,208.73 201.25,207.87 C200.29,207.00 198.60,205.01 197.50,203.45 C194.75,199.53 189.24,192.22 185.80,187.91 L 182.93 184.33 L 190.76 176.41 C198.42,168.67 198.63,168.33 200.30,160.72 C201.23,156.44 202.00,151.22 202.00,149.12 C202.00,144.65 200.23,139.00 198.83,139.00 C196.66,139.00 180.15,149.26 175.78,153.32 C172.45,156.42 169.41,157.48 168.43,155.89 C167.98,155.16 168.12,154.95 168.78,155.36 C169.94,156.08 169.85,153.60 168.54,148.78 C167.80,146.08 167.77,146.07 164.65,147.65 C162.92,148.53 158.73,151.89 155.34,155.13 C151.95,158.36 148.68,161.00 148.09,161.00 C147.49,161.00 146.03,160.03 144.85,158.85 C142.82,156.82 142.62,156.80 141.42,158.45 C139.63,160.89 136.31,172.21 135.04,180.22 C133.49,189.99 136.28,209.81 140.79,221.00 L 141.79 223.50 L 142.90 220.68 C143.50,219.14 144.00,216.21 143.99,214.18 C143.98,209.37 150.16,189.02 151.64,189.01 C152.62,189.00 166.49,205.96 169.50,210.83 C170.05,211.73 170.99,212.91 171.58,213.48 C172.18,214.04 174.33,216.84 176.38,219.69 C179.67,224.30 180.57,224.94 184.29,225.33 C188.36,225.76 211.21,225.11 211.78,224.55 ZM 315.77 204.79 L 316.04 186.09 L 323.27 185.79 L 330.50 185.50 L 330.81 182.25 L 331.13 179.00 L 312.06 179.00 L 293.00 179.00 L 293.00 182.50 L 293.00 186.00 L 300.00 186.00 L 307.00 186.00 L 307.00 205.06 L 307.00 224.11 L 311.25 223.81 L 315.50 223.50 L 315.77 204.79 ZM 345.79 215.69 L 346.09 207.89 L 350.20 208.19 C353.98,208.48 354.55,208.91 357.15,213.50 C360.04,218.58 360.63,219.82 361.47,222.50 C361.79,223.54 363.31,224.00 366.41,224.00 C373.10,224.00 373.11,224.25 365.75,210.76 L 363.17 206.02 L 365.95 204.03 C369.77,201.31 371.35,197.00 370.76,190.90 C370.38,186.90 369.60,185.14 367.12,182.66 L 363.97 179.50 L 350.48 179.17 L 337.00 178.85 L 337.00 201.48 L 337.00 224.11 L 341.25 223.81 L 345.50 223.50 L 345.79 215.69 ZM 385.69 222.75 C386.14,222.06 386.96,219.93 387.53,218.00 L 388.56 214.50 L 397.53 214.22 L 406.50 213.95 L 408.00 218.72 C409.42,223.25 409.71,223.52 413.38,223.82 C415.52,223.99 417.67,223.73 418.17,223.23 C418.72,222.68 417.65,218.36 415.48,212.41 C413.50,206.96 411.26,200.48 410.51,198.00 C409.77,195.52 408.07,190.35 406.75,186.50 L 404.34 179.50 L 397.81 179.21 L 391.28 178.91 L 389.09 185.21 C387.89,188.67 386.43,192.85 385.84,194.50 C385.26,196.15 384.08,199.52 383.23,202.00 C382.37,204.48 380.40,209.88 378.83,214.00 C377.27,218.12 375.99,222.06 375.99,222.75 C376.00,223.56 377.56,224.00 380.44,224.00 C382.90,224.00 385.24,223.44 385.69,222.75 ZM 452.74 221.04 C455.07,219.73 458.22,216.85 459.74,214.66 C462.27,211.01 462.50,209.91 462.47,201.59 C462.44,190.77 461.90,188.55 458.38,184.88 C453.67,179.96 450.29,179.00 437.60,179.00 L 426.00 179.00 L 426.00 200.92 C426.00,217.49 426.31,222.97 427.25,223.39 C427.94,223.70 433.00,223.84 438.50,223.70 C446.92,223.48 449.17,223.06 452.74,221.04 ZM 480.77 201.25 L 481.04 179.00 L 476.02 179.00 L 471.00 179.00 L 471.00 200.83 C471.00,212.84 471.32,222.99 471.71,223.38 C472.11,223.77 474.24,223.96 476.46,223.80 L 480.50 223.50 L 480.77 201.25 ZM 498.00 209.17 L 498.50 194.83 L 500.60 197.17 C501.76,198.45 503.00,200.18 503.37,201.00 C503.74,201.82 507.33,207.23 511.36,213.00 C518.53,223.30 518.74,223.50 522.58,223.50 L 526.50 223.50 L 526.77 201.25 L 527.04 179.00 L 522.52 179.00 L 518.00 179.00 L 518.00 191.94 C518.00,199.06 517.58,205.14 517.07,205.46 C516.33,205.91 509.60,196.79 503.50,187.06 C498.97,179.82 497.94,179.00 493.43,179.00 L 489.00 179.00 L 489.00 201.56 L 489.00 224.11 L 493.25 223.81 L 497.50 223.50 L 498.00 209.17 ZM 567.78 220.65 C572.59,217.32 574.63,212.80 574.90,204.84 L 575.10 199.18 L 566.30 199.34 L 557.50 199.50 L 557.19 203.25 L 556.88 207.00 L 561.44 207.00 C565.19,207.00 566.00,207.32 566.00,208.83 C566.00,211.49 561.81,215.00 557.89,215.61 C553.96,216.23 547.00,213.67 547.00,211.61 C547.00,210.86 546.33,209.68 545.50,209.00 C543.15,207.05 543.48,195.37 546.00,191.23 C549.84,184.94 559.30,184.26 563.97,189.94 C565.97,192.37 567.28,193.02 570.19,193.01 C574.84,193.00 575.52,191.90 573.41,187.82 C569.26,179.80 558.37,176.10 547.67,179.08 C534.21,182.81 529.66,205.57 540.02,217.37 C544.66,222.66 548.41,224.11 556.60,223.77 C562.48,223.53 564.41,222.99 567.78,220.65 ZM 109.35 221.25 C111.08,220.29 112.65,219.16 112.83,218.75 C113.02,218.34 113.70,218.00 114.36,218.00 C115.02,218.00 116.21,217.10 117.00,216.00 C117.79,214.90 118.79,214.00 119.21,214.00 C119.64,214.00 121.04,213.08 122.33,211.96 C123.62,210.84 126.21,209.09 128.09,208.07 C130.64,206.69 131.45,205.63 131.29,203.86 C129.99,189.32 129.95,184.79 131.07,179.00 C131.76,175.43 132.59,164.85 132.92,155.50 L 133.50 138.50 L 140.94 138.18 C148.32,137.86 148.42,137.82 153.94,132.77 C158.81,128.32 165.47,123.59 175.35,117.56 C178.09,115.89 178.13,115.78 176.26,114.47 C172.28,111.68 161.61,110.85 133.92,111.18 C118.84,111.35 105.94,111.86 105.25,112.31 C103.56,113.40 103.41,223.00 105.10,223.00 C105.70,223.00 107.61,222.21 109.35,221.25 ZM 225.41 164.31 C226.56,163.21 228.74,162.01 230.25,161.64 C232.10,161.18 233.00,160.31 233.00,158.98 C233.00,157.89 233.45,157.00 234.00,157.00 C234.59,157.00 235.00,153.33 235.00,148.00 L 235.00 139.00 L 249.49 139.00 L 263.97 139.00 L 266.60 134.84 C270.38,128.85 274.00,121.88 274.00,120.58 C274.00,119.97 275.14,117.78 276.54,115.73 C277.93,113.68 278.72,112.01 278.29,112.01 C277.16,112.04 269.30,114.82 267.24,115.93 C266.28,116.45 256.73,119.60 246.00,122.94 C235.27,126.27 222.00,130.47 216.50,132.25 L 206.50 135.50 L 206.50 142.58 C206.50,148.66 206.87,150.14 209.10,153.08 C210.53,154.96 212.50,158.07 213.47,160.00 C214.45,161.93 215.90,164.25 216.71,165.17 C218.57,167.30 222.69,166.89 225.41,164.31 ZM 303.79 154.25 L 304.08 146.00 L 307.47 146.00 C309.94,146.00 311.42,146.71 312.93,148.63 C314.07,150.08 315.00,151.81 315.00,152.46 C315.00,153.12 316.39,155.76 318.09,158.33 C320.89,162.54 321.56,163.00 325.04,163.00 C327.15,163.00 329.13,162.60 329.43,162.11 C329.74,161.62 327.96,157.56 325.49,153.08 L 320.99 144.95 L 324.40 141.53 C329.98,135.96 330.38,127.99 325.40,122.06 C322.08,118.12 317.67,117.01 305.25,117.01 L 295.00 117.00 L 295.00 140.06 L 295.00 163.11 L 299.25 162.81 L 303.50 162.50 L 303.79 154.25 ZM 345.77 139.75 L 346.04 117.00 L 341.02 117.00 L 336.00 117.00 L 336.00 139.33 C336.00,151.62 336.32,161.99 336.71,162.38 C337.11,162.77 339.24,162.96 341.46,162.80 L 345.50 162.50 L 345.77 139.75 ZM 382.81 153.00 C384.64,147.77 386.57,141.77 387.10,139.64 C387.63,137.52 388.65,134.60 389.38,133.14 C390.11,131.69 391.24,128.25 391.90,125.50 C392.55,122.75 393.33,119.71 393.61,118.75 C394.06,117.25 393.43,117.00 389.11,117.00 L 384.08 117.00 L 382.96 121.25 C382.34,123.59 380.52,129.15 378.92,133.60 C377.31,138.06 376.00,142.42 376.00,143.30 C376.00,145.47 373.88,150.00 372.86,150.00 C372.41,150.00 371.76,148.76 371.41,147.25 C370.71,144.17 365.56,127.78 363.24,121.25 L 361.73 117.00 L 356.45 117.00 L 351.18 117.00 L 353.47 123.25 C354.73,126.69 356.53,131.75 357.48,134.50 C358.42,137.25 361.04,144.81 363.29,151.29 L 367.39 163.09 L 373.43 162.79 L 379.48 162.50 L 382.81 153.00 ZM 430.50 158.65 L 430.50 154.79 L 420.50 154.65 L 410.50 154.50 L 410.50 149.00 L 410.50 143.50 L 420.00 143.00 L 429.50 142.50 L 429.81 139.29 L 430.12 136.07 L 420.31 135.79 L 410.50 135.50 L 410.50 130.00 L 410.50 124.50 L 420.75 124.22 L 431.00 123.93 L 431.00 120.47 L 431.00 117.00 L 416.00 117.00 L 401.00 117.00 L 401.00 139.33 C401.00,151.62 401.31,161.98 401.69,162.36 C402.07,162.74 408.71,162.93 416.44,162.78 L 430.50 162.50 L 430.50 158.65 ZM 448.79 154.19 L 449.08 145.88 L 452.71 146.19 C456.56,146.52 458.26,148.61 462.93,158.75 C464.80,162.81 465.09,163.00 469.28,163.00 C471.69,163.00 473.96,162.70 474.33,162.34 C474.69,161.98 472.93,157.91 470.42,153.31 L 465.86 144.93 L 468.87 142.12 C472.47,138.76 473.41,135.59 472.77,128.91 C471.86,119.52 467.08,117.02 450.00,117.00 L 439.50 117.00 L 439.79 140.05 L 440.07 163.11 L 444.29 162.81 L 448.50 162.50 L 448.79 154.19 ZM 508.89 159.97 C515.23,155.37 516.86,148.56 513.09,142.38 C511.48,139.74 509.75,138.81 501.95,136.38 C491.12,133.00 488.78,130.80 491.55,126.57 C492.92,124.47 494.02,124.00 497.53,124.00 C501.10,124.00 502.26,124.52 504.44,127.11 C506.73,129.83 507.48,130.13 510.53,129.56 C513.31,129.04 514.00,128.45 514.00,126.59 C514.00,122.97 510.70,119.65 505.14,117.65 C499.60,115.66 494.69,115.97 487.63,118.77 C482.16,120.95 479.70,127.53 481.64,134.78 C482.45,137.82 490.03,142.14 496.27,143.13 C501.25,143.92 506.00,147.08 506.00,149.60 C506.00,151.89 500.87,155.00 497.09,155.00 C493.08,155.00 489.00,152.70 489.00,150.44 C489.00,149.38 487.69,149.00 483.99,149.00 L 478.97 149.00 L 480.52 152.71 C483.65,160.20 488.35,162.94 498.10,162.98 C503.88,163.00 505.22,162.62 508.89,159.97 ZM 530.80 161.80 C531.55,161.05 532.00,157.30 532.00,151.76 L 532.00 142.93 L 541.75 143.21 L 551.50 143.50 L 551.79 153.31 L 552.07 163.11 L 556.29 162.81 L 560.50 162.50 L 560.77 139.75 L 561.04 117.00 L 556.56 117.00 L 552.08 117.00 L 551.79 126.25 L 551.50 135.50 L 541.75 135.79 L 532.00 136.07 L 532.00 126.54 L 532.00 117.00 L 527.00 117.00 L 522.00 117.00 L 522.00 139.33 C522.00,151.62 522.30,161.97 522.67,162.33 C523.79,163.45 529.52,163.08 530.80,161.80 ZM 600.63 159.66 C609.41,153.61 613.03,141.85 609.52,130.70 C607.36,123.84 603.22,119.72 596.17,117.44 C586.66,114.36 576.36,118.12 571.48,126.44 C569.01,130.67 568.83,131.70 569.15,140.33 C569.56,151.19 571.47,155.05 578.92,160.04 C582.64,162.53 584.33,163.00 589.56,163.00 C594.98,163.00 596.41,162.57 600.63,159.66 ZM 627.79 154.19 L 628.08 145.88 L 631.78 146.19 C635.30,146.48 635.71,146.91 639.96,154.75 C644.34,162.80 644.54,163.00 648.16,163.00 C650.21,163.00 652.17,162.53 652.53,161.95 C652.88,161.38 651.34,157.37 649.09,153.05 C644.71,144.63 644.26,143.00 646.31,143.00 C649.09,143.00 652.43,136.72 652.42,131.50 C652.41,120.50 646.83,117.00 629.32,117.00 L 619.00 117.00 L 619.00 140.06 L 619.00 163.11 L 623.25 162.81 L 627.50 162.50 L 627.79 154.19 ZM 689.81 158.75 L 690.12 155.00 L 681.14 155.00 C669.14,155.00 669.00,154.92 669.00,148.43 L 669.00 143.07 L 678.75 142.79 L 688.50 142.50 L 688.81 139.25 L 689.13 136.00 L 679.06 136.00 L 669.00 136.00 L 669.00 130.13 L 669.00 124.25 L 678.68 124.07 C684.01,123.97 688.73,123.67 689.18,123.39 C689.63,123.11 690.00,121.56 690.00,119.94 L 690.00 117.00 L 675.00 117.00 L 660.00 117.00 L 660.00 140.03 L 660.00 163.05 L 674.75 162.78 L 689.50 162.50 L 689.81 158.75 ZM 346.75 199.43 C346.34,199.01 346.00,195.82 346.00,192.33 L 346.00 186.00 L 351.28 186.00 C358.32,186.00 361.00,187.91 361.00,192.93 C361.00,195.18 360.36,197.29 359.44,198.05 C357.66,199.52 347.89,200.59 346.75,199.43 ZM 392.53 202.81 C392.92,200.99 393.86,198.29 394.62,196.80 C395.38,195.32 396.12,193.30 396.27,192.30 C396.42,191.31 396.93,190.27 397.39,190.00 C398.47,189.36 401.72,197.58 402.16,202.07 L 402.50 205.50 L 397.16 205.81 L 391.82 206.11 L 392.53 202.81 ZM 435.00 200.50 L 435.00 186.00 L 438.98 186.00 C445.32,186.00 451.00,188.76 452.62,192.62 C454.39,196.87 454.39,204.14 452.61,208.40 C450.56,213.30 447.51,215.00 440.78,215.00 L 435.00 215.00 L 435.00 200.50 ZM 304.41 137.64 C304.13,136.89 304.03,133.63 304.20,130.39 L 304.50 124.50 L 309.69 124.54 C315.85,124.59 319.00,126.84 319.00,131.20 C319.00,135.76 315.06,139.00 309.51,139.00 C306.57,139.00 304.75,138.51 304.41,137.64 ZM 449.00 131.36 L 449.00 123.72 L 454.75 124.31 C458.96,124.75 460.97,125.48 462.25,127.06 C464.70,130.08 464.43,133.66 461.55,136.55 C459.59,138.50 458.07,139.00 454.05,139.00 L 449.00 139.00 L 449.00 131.36 ZM 586.50 154.32 C581.22,152.94 578.00,147.24 578.00,139.30 C578.01,132.13 580.56,127.50 585.68,125.36 C588.80,124.06 589.81,124.04 592.89,125.21 C598.23,127.24 601.00,132.01 601.00,139.20 C601.00,150.02 594.80,156.48 586.50,154.32 ZM 628.67 138.33 C628.30,137.97 628.00,134.59 628.00,130.83 L 628.00 124.00 L 632.25 124.00 C638.31,124.01 643.00,127.07 643.00,131.03 C643.00,135.69 639.14,139.00 633.71,139.00 C631.30,139.00 629.03,138.70 628.67,138.33 Z" fill="rgb(101,178,67)"/>
<path d="M 0.00 163.50 L 0.00 0.00 L 381.00 0.00 L 762.00 0.00 L 762.00 163.50 L 762.00 327.00 L 381.00 327.00 L 0.00 327.00 L 0.00 163.50 ZM 211.78 224.55 C212.57,223.77 209.66,218.64 206.54,215.34 C204.59,213.27 203.00,211.10 203.00,210.51 C203.00,209.93 202.21,208.73 201.25,207.87 C200.29,207.00 198.60,205.01 197.50,203.45 C194.75,199.53 189.24,192.22 185.80,187.91 L 182.93 184.33 L 190.79 176.40 L 198.65 168.46 L 200.46 159.81 C201.68,153.99 202.05,149.58 201.59,146.33 C201.21,143.67 200.81,140.60 200.70,139.50 C200.59,138.40 199.71,136.91 198.75,136.19 C196.40,134.44 196.54,132.35 199.06,131.70 C200.87,131.22 200.96,130.91 199.81,129.07 C198.99,127.76 197.94,127.22 197.00,127.63 C196.18,127.99 193.48,128.59 191.00,128.96 C188.52,129.34 182.40,131.75 177.38,134.32 C167.25,139.52 166.00,139.83 166.00,137.15 C166.00,136.14 165.13,134.52 164.06,133.56 C162.19,131.86 161.94,131.97 156.99,136.60 C141.39,151.20 132.55,174.69 134.93,195.22 C135.87,203.26 138.74,215.92 140.79,221.00 L 141.79 223.50 L 142.90 220.68 C143.50,219.14 144.00,216.21 143.99,214.18 C143.98,209.37 150.16,189.02 151.64,189.01 C152.62,189.00 166.49,205.96 169.50,210.83 C170.05,211.73 170.99,212.91 171.58,213.48 C172.18,214.04 174.33,216.84 176.38,219.69 C179.67,224.30 180.57,224.94 184.29,225.33 C188.36,225.76 211.21,225.11 211.78,224.55 ZM 315.77 204.79 L 316.04 186.09 L 323.27 185.79 L 330.50 185.50 L 330.81 182.25 L 331.13 179.00 L 312.06 179.00 L 293.00 179.00 L 293.00 182.50 L 293.00 186.00 L 300.00 186.00 L 307.00 186.00 L 307.00 205.06 L 307.00 224.11 L 311.25 223.81 L 315.50 223.50 L 315.77 204.79 ZM 345.79 215.69 L 346.09 207.89 L 350.20 208.19 C353.98,208.48 354.55,208.91 357.15,213.50 C360.04,218.58 360.63,219.82 361.47,222.50 C361.79,223.54 363.31,224.00 366.41,224.00 C373.10,224.00 373.11,224.25 365.75,210.76 L 363.17 206.02 L 365.95 204.03 C369.77,201.31 371.35,197.00 370.76,190.90 C370.38,186.90 369.60,185.14 367.12,182.66 L 363.97 179.50 L 350.48 179.17 L 337.00 178.85 L 337.00 201.48 L 337.00 224.11 L 341.25 223.81 L 345.50 223.50 L 345.79 215.69 ZM 385.69 222.75 C386.14,222.06 386.96,219.93 387.53,218.00 L 388.56 214.50 L 397.53 214.22 L 406.50 213.95 L 408.00 218.72 C409.42,223.25 409.71,223.52 413.38,223.82 C415.52,223.99 417.67,223.73 418.17,223.23 C418.72,222.68 417.65,218.36 415.48,212.41 C413.50,206.96 411.26,200.48 410.51,198.00 C409.77,195.52 408.07,190.35 406.75,186.50 L 404.34 179.50 L 397.81 179.21 L 391.28 178.91 L 389.09 185.21 C387.89,188.67 386.43,192.85 385.84,194.50 C385.26,196.15 384.08,199.52 383.23,202.00 C382.37,204.48 380.40,209.88 378.83,214.00 C377.27,218.12 375.99,222.06 375.99,222.75 C376.00,223.56 377.56,224.00 380.44,224.00 C382.90,224.00 385.24,223.44 385.69,222.75 ZM 452.74 221.04 C455.07,219.73 458.22,216.85 459.74,214.66 C462.27,211.01 462.50,209.91 462.47,201.59 C462.44,190.77 461.90,188.55 458.38,184.88 C453.67,179.96 450.29,179.00 437.60,179.00 L 426.00 179.00 L 426.00 200.92 C426.00,217.49 426.31,222.97 427.25,223.39 C427.94,223.70 433.00,223.84 438.50,223.70 C446.92,223.48 449.17,223.06 452.74,221.04 ZM 480.77 201.25 L 481.04 179.00 L 476.02 179.00 L 471.00 179.00 L 471.00 200.83 C471.00,212.84 471.32,222.99 471.71,223.38 C472.11,223.77 474.24,223.96 476.46,223.80 L 480.50 223.50 L 480.77 201.25 ZM 498.00 209.17 L 498.50 194.83 L 500.60 197.17 C501.76,198.45 503.00,200.18 503.37,201.00 C503.74,201.82 507.33,207.23 511.36,213.00 C518.53,223.30 518.74,223.50 522.58,223.50 L 526.50 223.50 L 526.77 201.25 L 527.04 179.00 L 522.52 179.00 L 518.00 179.00 L 518.00 191.94 C518.00,199.06 517.58,205.14 517.07,205.46 C516.33,205.91 509.60,196.79 503.50,187.06 C498.97,179.82 497.94,179.00 493.43,179.00 L 489.00 179.00 L 489.00 201.56 L 489.00 224.11 L 493.25 223.81 L 497.50 223.50 L 498.00 209.17 ZM 567.78 220.65 C572.59,217.32 574.63,212.80 574.90,204.84 L 575.10 199.18 L 566.30 199.34 L 557.50 199.50 L 557.19 203.25 L 556.88 207.00 L 561.44 207.00 C565.19,207.00 566.00,207.32 566.00,208.83 C566.00,211.49 561.81,215.00 557.89,215.61 C553.96,216.23 547.00,213.67 547.00,211.61 C547.00,210.86 546.33,209.68 545.50,209.00 C543.15,207.05 543.48,195.37 546.00,191.23 C549.84,184.94 559.30,184.26 563.97,189.94 C565.97,192.37 567.28,193.02 570.19,193.01 C574.84,193.00 575.52,191.90 573.41,187.82 C569.26,179.80 558.37,176.10 547.67,179.08 C534.21,182.81 529.66,205.57 540.02,217.37 C544.66,222.66 548.41,224.11 556.60,223.77 C562.48,223.53 564.41,222.99 567.78,220.65 ZM 109.35 221.25 C111.08,220.29 112.65,219.16 112.83,218.75 C113.02,218.34 113.70,218.00 114.36,218.00 C115.02,218.00 116.21,217.10 117.00,216.00 C117.79,214.90 118.79,214.00 119.21,214.00 C119.64,214.00 121.04,213.08 122.33,211.96 C123.62,210.84 126.21,209.09 128.09,208.07 C130.64,206.69 131.45,205.63 131.29,203.86 C129.99,189.32 129.95,184.79 131.07,179.00 C131.76,175.43 132.59,164.85 132.92,155.50 L 133.50 138.50 L 140.94 138.18 C148.32,137.86 148.42,137.82 153.94,132.77 C158.81,128.32 165.47,123.59 175.35,117.56 C178.09,115.89 178.13,115.78 176.26,114.47 C172.28,111.68 161.61,110.85 133.92,111.18 C118.84,111.35 105.94,111.86 105.25,112.31 C103.56,113.40 103.41,223.00 105.10,223.00 C105.70,223.00 107.61,222.21 109.35,221.25 ZM 227.43 189.12 C228.17,187.92 233.00,187.07 233.00,188.14 C233.00,188.61 233.45,189.00 234.00,189.00 C234.64,189.00 235.00,180.00 235.00,164.00 L 235.00 139.00 L 249.49 139.00 L 263.97 139.00 L 266.60 134.84 C270.38,128.85 274.00,121.88 274.00,120.58 C274.00,119.97 275.14,117.78 276.54,115.73 C277.93,113.68 278.72,112.01 278.29,112.01 C277.16,112.04 269.30,114.82 267.24,115.93 C266.28,116.45 256.73,119.60 246.00,122.94 C235.27,126.27 222.00,130.47 216.50,132.25 L 206.50 135.50 L 206.23 153.54 C206.08,163.46 206.32,174.04 206.76,177.04 L 207.57 182.50 L 210.68 179.15 C214.75,174.75 217.16,175.47 219.51,181.78 C222.09,188.70 225.65,192.00 227.43,189.12 ZM 303.79 154.25 L 304.08 146.00 L 307.47 146.00 C309.94,146.00 311.42,146.71 312.93,148.63 C314.07,150.08 315.00,151.81 315.00,152.46 C315.00,153.12 316.39,155.76 318.09,158.33 C320.89,162.54 321.56,163.00 325.04,163.00 C327.15,163.00 329.13,162.60 329.43,162.11 C329.74,161.62 327.96,157.56 325.49,153.08 L 320.99 144.95 L 324.40 141.53 C329.98,135.96 330.38,127.99 325.40,122.06 C322.08,118.12 317.67,117.01 305.25,117.01 L 295.00 117.00 L 295.00 140.06 L 295.00 163.11 L 299.25 162.81 L 303.50 162.50 L 303.79 154.25 ZM 345.77 139.75 L 346.04 117.00 L 341.02 117.00 L 336.00 117.00 L 336.00 139.33 C336.00,151.62 336.32,161.99 336.71,162.38 C337.11,162.77 339.24,162.96 341.46,162.80 L 345.50 162.50 L 345.77 139.75 ZM 382.81 153.00 C384.64,147.77 386.57,141.77 387.10,139.64 C387.63,137.52 388.65,134.60 389.38,133.14 C390.11,131.69 391.24,128.25 391.90,125.50 C392.55,122.75 393.33,119.71 393.61,118.75 C394.06,117.25 393.43,117.00 389.11,117.00 L 384.08 117.00 L 382.96 121.25 C382.34,123.59 380.52,129.15 378.92,133.60 C377.31,138.06 376.00,142.42 376.00,143.30 C376.00,145.47 373.88,150.00 372.86,150.00 C372.41,150.00 371.76,148.76 371.41,147.25 C370.71,144.17 365.56,127.78 363.24,121.25 L 361.73 117.00 L 356.45 117.00 L 351.18 117.00 L 353.47 123.25 C354.73,126.69 356.53,131.75 357.48,134.50 C358.42,137.25 361.04,144.81 363.29,151.29 L 367.39 163.09 L 373.43 162.79 L 379.48 162.50 L 382.81 153.00 ZM 430.50 158.65 L 430.50 154.79 L 420.50 154.65 L 410.50 154.50 L 410.50 149.00 L 410.50 143.50 L 420.00 143.00 L 429.50 142.50 L 429.81 139.29 L 430.12 136.07 L 420.31 135.79 L 410.50 135.50 L 410.50 130.00 L 410.50 124.50 L 420.75 124.22 L 431.00 123.93 L 431.00 120.47 L 431.00 117.00 L 416.00 117.00 L 401.00 117.00 L 401.00 139.33 C401.00,151.62 401.31,161.98 401.69,162.36 C402.07,162.74 408.71,162.93 416.44,162.78 L 430.50 162.50 L 430.50 158.65 ZM 448.79 154.19 L 449.08 145.88 L 452.71 146.19 C456.56,146.52 458.26,148.61 462.93,158.75 C464.80,162.81 465.09,163.00 469.28,163.00 C471.69,163.00 473.96,162.70 474.33,162.34 C474.69,161.98 472.93,157.91 470.42,153.31 L 465.86 144.93 L 468.87 142.12 C472.47,138.76 473.41,135.59 472.77,128.91 C471.86,119.52 467.08,117.02 450.00,117.00 L 439.50 117.00 L 439.79 140.05 L 440.07 163.11 L 444.29 162.81 L 448.50 162.50 L 448.79 154.19 ZM 508.89 159.97 C515.23,155.37 516.86,148.56 513.09,142.38 C511.48,139.74 509.75,138.81 501.95,136.38 C491.12,133.00 488.78,130.80 491.55,126.57 C492.92,124.47 494.02,124.00 497.53,124.00 C501.10,124.00 502.26,124.52 504.44,127.11 C506.73,129.83 507.48,130.13 510.53,129.56 C513.31,129.04 514.00,128.45 514.00,126.59 C514.00,122.97 510.70,119.65 505.14,117.65 C499.60,115.66 494.69,115.97 487.63,118.77 C482.16,120.95 479.70,127.53 481.64,134.78 C482.45,137.82 490.03,142.14 496.27,143.13 C501.25,143.92 506.00,147.08 506.00,149.60 C506.00,151.89 500.87,155.00 497.09,155.00 C493.08,155.00 489.00,152.70 489.00,150.44 C489.00,149.38 487.69,149.00 483.99,149.00 L 478.97 149.00 L 480.52 152.71 C483.65,160.20 488.35,162.94 498.10,162.98 C503.88,163.00 505.22,162.62 508.89,159.97 ZM 530.80 161.80 C531.55,161.05 532.00,157.30 532.00,151.76 L 532.00 142.93 L 541.75 143.21 L 551.50 143.50 L 551.79 153.31 L 552.07 163.11 L 556.29 162.81 L 560.50 162.50 L 560.77 139.75 L 561.04 117.00 L 556.56 117.00 L 552.08 117.00 L 551.79 126.25 L 551.50 135.50 L 541.75 135.79 L 532.00 136.07 L 532.00 126.54 L 532.00 117.00 L 527.00 117.00 L 522.00 117.00 L 522.00 139.33 C522.00,151.62 522.30,161.97 522.67,162.33 C523.79,163.45 529.52,163.08 530.80,161.80 ZM 600.63 159.66 C609.41,153.61 613.03,141.85 609.52,130.70 C607.36,123.84 603.22,119.72 596.17,117.44 C586.66,114.36 576.36,118.12 571.48,126.44 C569.01,130.67 568.83,131.70 569.15,140.33 C569.56,151.19 571.47,155.05 578.92,160.04 C582.64,162.53 584.33,163.00 589.56,163.00 C594.98,163.00 596.41,162.57 600.63,159.66 ZM 627.79 154.19 L 628.08 145.88 L 631.78 146.19 C635.30,146.48 635.71,146.91 639.96,154.75 C644.34,162.80 644.54,163.00 648.16,163.00 C650.21,163.00 652.17,162.53 652.53,161.95 C652.88,161.38 651.34,157.37 649.09,153.05 C644.71,144.63 644.26,143.00 646.31,143.00 C649.09,143.00 652.43,136.72 652.42,131.50 C652.41,120.50 646.83,117.00 629.32,117.00 L 619.00 117.00 L 619.00 140.06 L 619.00 163.11 L 623.25 162.81 L 627.50 162.50 L 627.79 154.19 ZM 689.81 158.75 L 690.12 155.00 L 681.14 155.00 C669.14,155.00 669.00,154.92 669.00,148.43 L 669.00 143.07 L 678.75 142.79 L 688.50 142.50 L 688.81 139.25 L 689.13 136.00 L 679.06 136.00 L 669.00 136.00 L 669.00 130.13 L 669.00 124.25 L 678.68 124.07 C684.01,123.97 688.73,123.67 689.18,123.39 C689.63,123.11 690.00,121.56 690.00,119.94 L 690.00 117.00 L 675.00 117.00 L 660.00 117.00 L 660.00 140.03 L 660.00 163.05 L 674.75 162.78 L 689.50 162.50 L 689.81 158.75 ZM 346.75 199.43 C346.34,199.01 346.00,195.82 346.00,192.33 L 346.00 186.00 L 351.28 186.00 C358.32,186.00 361.00,187.91 361.00,192.93 C361.00,195.18 360.36,197.29 359.44,198.05 C357.66,199.52 347.89,200.59 346.75,199.43 ZM 392.53 202.81 C392.92,200.99 393.86,198.29 394.62,196.80 C395.38,195.32 396.12,193.30 396.27,192.30 C396.42,191.31 396.93,190.27 397.39,190.00 C398.47,189.36 401.72,197.58 402.16,202.07 L 402.50 205.50 L 397.16 205.81 L 391.82 206.11 L 392.53 202.81 ZM 435.00 200.50 L 435.00 186.00 L 438.98 186.00 C445.32,186.00 451.00,188.76 452.62,192.62 C454.39,196.87 454.39,204.14 452.61,208.40 C450.56,213.30 447.51,215.00 440.78,215.00 L 435.00 215.00 L 435.00 200.50 ZM 304.41 137.64 C304.13,136.89 304.03,133.63 304.20,130.39 L 304.50 124.50 L 309.69 124.54 C315.85,124.59 319.00,126.84 319.00,131.20 C319.00,135.76 315.06,139.00 309.51,139.00 C306.57,139.00 304.75,138.51 304.41,137.64 ZM 449.00 131.36 L 449.00 123.72 L 454.75 124.31 C458.96,124.75 460.97,125.48 462.25,127.06 C464.70,130.08 464.43,133.66 461.55,136.55 C459.59,138.50 458.07,139.00 454.05,139.00 L 449.00 139.00 L 449.00 131.36 ZM 586.50 154.32 C581.22,152.94 578.00,147.24 578.00,139.30 C578.01,132.13 580.56,127.50 585.68,125.36 C588.80,124.06 589.81,124.04 592.89,125.21 C598.23,127.24 601.00,132.01 601.00,139.20 C601.00,150.02 594.80,156.48 586.50,154.32 ZM 628.67 138.33 C628.30,137.97 628.00,134.59 628.00,130.83 L 628.00 124.00 L 632.25 124.00 C638.31,124.01 643.00,127.07 643.00,131.03 C643.00,135.69 639.14,139.00 633.71,139.00 C631.30,139.00 629.03,138.70 628.67,138.33 Z" fill="rgb(120,203,72)"/>
<path d="M 0.00 163.50 L 0.00 0.00 L 381.00 0.00 L 762.00 0.00 L 762.00 163.50 L 762.00 327.00 L 381.00 327.00 L 0.00 327.00 L 0.00 163.50 ZM 211.78 224.55 C212.57,223.77 209.66,218.64 206.54,215.34 C204.59,213.27 203.00,211.10 203.00,210.51 C203.00,209.93 202.21,208.73 201.25,207.87 C200.29,207.00 198.60,205.01 197.50,203.45 C194.75,199.53 189.24,192.22 185.80,187.91 L 182.93 184.33 L 190.79 176.40 L 198.65 168.46 L 200.46 159.81 C202.16,151.73 202.17,145.90 200.50,140.44 C200.02,138.89 200.47,138.11 202.33,137.26 C203.69,136.64 205.07,136.40 205.40,136.73 C205.73,137.06 206.00,152.30 206.00,170.58 C206.00,188.87 206.27,204.54 206.60,205.39 C206.92,206.25 208.84,207.24 210.85,207.60 C214.98,208.35 217.25,209.79 216.41,211.14 C216.10,211.64 216.22,211.94 216.68,211.81 C217.13,211.68 218.55,212.16 219.83,212.87 C221.80,213.96 222.44,213.91 223.91,212.58 C226.31,210.41 226.75,210.57 227.48,213.90 C228.27,217.52 231.18,220.25 233.36,219.42 C234.84,218.85 235.00,214.99 235.00,178.89 L 235.00 139.00 L 249.49 139.00 L 263.97 139.00 L 266.60 134.84 C270.38,128.85 274.00,121.88 274.00,120.58 C274.00,119.97 275.14,117.78 276.54,115.73 C277.93,113.68 278.72,112.01 278.29,112.01 C277.22,112.03 269.38,114.79 267.24,115.90 C266.28,116.39 261.73,118.01 257.13,119.48 C251.13,121.41 248.46,121.86 247.68,121.08 C246.91,120.31 246.99,120.00 247.97,120.00 C248.72,120.00 249.04,119.71 248.68,119.35 C248.32,118.99 248.81,118.13 249.76,117.43 C256.02,112.85 237.47,114.02 210.00,119.93 C202.00,121.65 191.43,121.73 192.46,120.07 C193.46,118.45 189.41,119.44 188.23,121.11 C187.19,122.57 186.06,122.79 182.01,122.32 C177.48,121.78 176.49,122.08 170.17,125.90 C163.89,129.69 152.88,140.19 147.39,147.64 C138.45,159.75 133.16,179.95 134.93,195.22 C135.87,203.26 138.74,215.92 140.79,221.00 L 141.79 223.50 L 142.90 220.68 C143.50,219.14 144.00,216.21 143.99,214.18 C143.98,209.37 150.16,189.02 151.64,189.01 C152.62,189.00 166.49,205.96 169.50,210.83 C170.05,211.73 170.99,212.91 171.58,213.48 C172.18,214.04 174.33,216.84 176.38,219.69 C179.67,224.30 180.57,224.94 184.29,225.33 C188.36,225.76 211.21,225.11 211.78,224.55 ZM 315.77 204.79 L 316.04 186.09 L 323.27 185.79 L 330.50 185.50 L 330.81 182.25 L 331.13 179.00 L 312.06 179.00 L 293.00 179.00 L 293.00 182.50 L 293.00 186.00 L 300.00 186.00 L 307.00 186.00 L 307.00 205.06 L 307.00 224.11 L 311.25 223.81 L 315.50 223.50 L 315.77 204.79 ZM 345.79 215.69 L 346.09 207.89 L 350.20 208.19 C353.98,208.48 354.55,208.91 357.15,213.50 C360.04,218.58 360.63,219.82 361.47,222.50 C361.79,223.54 363.31,224.00 366.41,224.00 C373.10,224.00 373.11,224.25 365.75,210.76 L 363.17 206.02 L 365.95 204.03 C369.77,201.31 371.35,197.00 370.76,190.90 C370.38,186.90 369.60,185.14 367.12,182.66 L 363.97 179.50 L 350.48 179.17 L 337.00 178.85 L 337.00 201.48 L 337.00 224.11 L 341.25 223.81 L 345.50 223.50 L 345.79 215.69 ZM 385.69 222.75 C386.14,222.06 386.96,219.93 387.53,218.00 L 388.56 214.50 L 397.53 214.22 L 406.50 213.95 L 408.00 218.72 C409.42,223.25 409.71,223.52 413.38,223.82 C415.52,223.99 417.67,223.73 418.17,223.23 C418.72,222.68 417.65,218.36 415.48,212.41 C413.50,206.96 411.26,200.48 410.51,198.00 C409.77,195.52 408.07,190.35 406.75,186.50 L 404.34 179.50 L 397.81 179.21 L 391.28 178.91 L 389.09 185.21 C387.89,188.67 386.43,192.85 385.84,194.50 C385.26,196.15 384.08,199.52 383.23,202.00 C382.37,204.48 380.40,209.88 378.83,214.00 C377.27,218.12 375.99,222.06 375.99,222.75 C376.00,223.56 377.56,224.00 380.44,224.00 C382.90,224.00 385.24,223.44 385.69,222.75 ZM 452.74 221.04 C455.07,219.73 458.22,216.85 459.74,214.66 C462.27,211.01 462.50,209.91 462.47,201.59 C462.44,190.77 461.90,188.55 458.38,184.88 C453.67,179.96 450.29,179.00 437.60,179.00 L 426.00 179.00 L 426.00 200.92 C426.00,217.49 426.31,222.97 427.25,223.39 C427.94,223.70 433.00,223.84 438.50,223.70 C446.92,223.48 449.17,223.06 452.74,221.04 ZM 480.77 201.25 L 481.04 179.00 L 476.02 179.00 L 471.00 179.00 L 471.00 200.83 C471.00,212.84 471.32,222.99 471.71,223.38 C472.11,223.77 474.24,223.96 476.46,223.80 L 480.50 223.50 L 480.77 201.25 ZM 498.00 209.17 L 498.50 194.83 L 500.60 197.17 C501.76,198.45 503.00,200.18 503.37,201.00 C503.74,201.82 507.33,207.23 511.36,213.00 C518.53,223.30 518.74,223.50 522.58,223.50 L 526.50 223.50 L 526.77 201.25 L 527.04 179.00 L 522.52 179.00 L 518.00 179.00 L 518.00 191.94 C518.00,199.06 517.58,205.14 517.07,205.46 C516.33,205.91 509.60,196.79 503.50,187.06 C498.97,179.82 497.94,179.00 493.43,179.00 L 489.00 179.00 L 489.00 201.56 L 489.00 224.11 L 493.25 223.81 L 497.50 223.50 L 498.00 209.17 ZM 567.78 220.65 C572.59,217.32 574.63,212.80 574.90,204.84 L 575.10 199.18 L 566.30 199.34 L 557.50 199.50 L 557.19 203.25 L 556.88 207.00 L 561.44 207.00 C565.19,207.00 566.00,207.32 566.00,208.83 C566.00,211.49 561.81,215.00 557.89,215.61 C553.96,216.23 547.00,213.67 547.00,211.61 C547.00,210.86 546.33,209.68 545.50,209.00 C543.15,207.05 543.48,195.37 546.00,191.23 C549.84,184.94 559.30,184.26 563.97,189.94 C565.97,192.37 567.28,193.02 570.19,193.01 C574.84,193.00 575.52,191.90 573.41,187.82 C569.26,179.80 558.37,176.10 547.67,179.08 C534.21,182.81 529.66,205.57 540.02,217.37 C544.66,222.66 548.41,224.11 556.60,223.77 C562.48,223.53 564.41,222.99 567.78,220.65 ZM 109.35 221.25 C111.08,220.29 112.65,219.16 112.83,218.75 C113.02,218.34 113.70,218.00 114.36,218.00 C115.02,218.00 116.21,217.10 117.00,216.00 C117.79,214.90 118.79,214.00 119.21,214.00 C119.64,214.00 121.04,213.08 122.33,211.96 C123.62,210.84 126.21,209.09 128.09,208.07 C130.64,206.69 131.45,205.63 131.29,203.86 C129.99,189.32 129.95,184.79 131.07,179.00 C131.76,175.43 132.59,164.85 132.92,155.50 L 133.50 138.50 L 140.94 138.18 C148.32,137.86 148.42,137.82 153.94,132.77 C158.81,128.32 165.47,123.59 175.35,117.56 C178.09,115.89 178.13,115.78 176.26,114.47 C172.28,111.68 161.61,110.85 133.92,111.18 C118.84,111.35 105.94,111.86 105.25,112.31 C103.56,113.40 103.41,223.00 105.10,223.00 C105.70,223.00 107.61,222.21 109.35,221.25 ZM 303.79 154.25 L 304.08 146.00 L 307.47 146.00 C309.94,146.00 311.42,146.71 312.93,148.63 C314.07,150.08 315.00,151.81 315.00,152.46 C315.00,153.12 316.39,155.76 318.09,158.33 C320.89,162.54 321.56,163.00 325.04,163.00 C327.15,163.00 329.13,162.60 329.43,162.11 C329.74,161.62 327.96,157.56 325.49,153.08 L 320.99 144.95 L 324.40 141.53 C329.98,135.96 330.38,127.99 325.40,122.06 C322.08,118.12 317.67,117.01 305.25,117.01 L 295.00 117.00 L 295.00 140.06 L 295.00 163.11 L 299.25 162.81 L 303.50 162.50 L 303.79 154.25 ZM 345.77 139.75 L 346.04 117.00 L 341.02 117.00 L 336.00 117.00 L 336.00 139.33 C336.00,151.62 336.32,161.99 336.71,162.38 C337.11,162.77 339.24,162.96 341.46,162.80 L 345.50 162.50 L 345.77 139.75 ZM 382.81 153.00 C384.64,147.77 386.57,141.77 387.10,139.64 C387.63,137.52 388.65,134.60 389.38,133.14 C390.11,131.69 391.24,128.25 391.90,125.50 C392.55,122.75 393.33,119.71 393.61,118.75 C394.06,117.25 393.43,117.00 389.11,117.00 L 384.08 117.00 L 382.96 121.25 C382.34,123.59 380.52,129.15 378.92,133.60 C377.31,138.06 376.00,142.42 376.00,143.30 C376.00,145.47 373.88,150.00 372.86,150.00 C372.41,150.00 371.76,148.76 371.41,147.25 C370.71,144.17 365.56,127.78 363.24,121.25 L 361.73 117.00 L 356.45 117.00 L 351.18 117.00 L 353.47 123.25 C354.73,126.69 356.53,131.75 357.48,134.50 C358.42,137.25 361.04,144.81 363.29,151.29 L 367.39 163.09 L 373.43 162.79 L 379.48 162.50 L 382.81 153.00 ZM 430.50 158.65 L 430.50 154.79 L 420.50 154.65 L 410.50 154.50 L 410.50 149.00 L 410.50 143.50 L 420.00 143.00 L 429.50 142.50 L 429.81 139.29 L 430.12 136.07 L 420.31 135.79 L 410.50 135.50 L 410.50 130.00 L 410.50 124.50 L 420.75 124.22 L 431.00 123.93 L 431.00 120.47 L 431.00 117.00 L 416.00 117.00 L 401.00 117.00 L 401.00 139.33 C401.00,151.62 401.31,161.98 401.69,162.36 C402.07,162.74 408.71,162.93 416.44,162.78 L 430.50 162.50 L 430.50 158.65 ZM 448.79 154.19 L 449.08 145.88 L 452.71 146.19 C456.56,146.52 458.26,148.61 462.93,158.75 C464.80,162.81 465.09,163.00 469.28,163.00 C471.69,163.00 473.96,162.70 474.33,162.34 C474.69,161.98 472.93,157.91 470.42,153.31 L 465.86 144.93 L 468.87 142.12 C472.47,138.76 473.41,135.59 472.77,128.91 C471.86,119.52 467.08,117.02 450.00,117.00 L 439.50 117.00 L 439.79 140.05 L 440.07 163.11 L 444.29 162.81 L 448.50 162.50 L 448.79 154.19 ZM 508.89 159.97 C515.23,155.37 516.86,148.56 513.09,142.38 C511.48,139.74 509.75,138.81 501.95,136.38 C491.12,133.00 488.78,130.80 491.55,126.57 C492.92,124.47 494.02,124.00 497.53,124.00 C501.10,124.00 502.26,124.52 504.44,127.11 C506.73,129.83 507.48,130.13 510.53,129.56 C513.31,129.04 514.00,128.45 514.00,126.59 C514.00,122.97 510.70,119.65 505.14,117.65 C499.60,115.66 494.69,115.97 487.63,118.77 C482.16,120.95 479.70,127.53 481.64,134.78 C482.45,137.82 490.03,142.14 496.27,143.13 C501.25,143.92 506.00,147.08 506.00,149.60 C506.00,151.89 500.87,155.00 497.09,155.00 C493.08,155.00 489.00,152.70 489.00,150.44 C489.00,149.38 487.69,149.00 483.99,149.00 L 478.97 149.00 L 480.52 152.71 C483.65,160.20 488.35,162.94 498.10,162.98 C503.88,163.00 505.22,162.62 508.89,159.97 ZM 530.80 161.80 C531.55,161.05 532.00,157.30 532.00,151.76 L 532.00 142.93 L 541.75 143.21 L 551.50 143.50 L 551.79 153.31 L 552.07 163.11 L 556.29 162.81 L 560.50 162.50 L 560.77 139.75 L 561.04 117.00 L 556.56 117.00 L 552.08 117.00 L 551.79 126.25 L 551.50 135.50 L 541.75 135.79 L 532.00 136.07 L 532.00 126.54 L 532.00 117.00 L 527.00 117.00 L 522.00 117.00 L 522.00 139.33 C522.00,151.62 522.30,161.97 522.67,162.33 C523.79,163.45 529.52,163.08 530.80,161.80 ZM 600.63 159.66 C609.41,153.61 613.03,141.85 609.52,130.70 C607.36,123.84 603.22,119.72 596.17,117.44 C586.66,114.36 576.36,118.12 571.48,126.44 C569.01,130.67 568.83,131.70 569.15,140.33 C569.56,151.19 571.47,155.05 578.92,160.04 C582.64,162.53 584.33,163.00 589.56,163.00 C594.98,163.00 596.41,162.57 600.63,159.66 ZM 627.79 154.19 L 628.08 145.88 L 631.78 146.19 C635.30,146.48 635.71,146.91 639.96,154.75 C644.34,162.80 644.54,163.00 648.16,163.00 C650.21,163.00 652.17,162.53 652.53,161.95 C652.88,161.38 651.34,157.37 649.09,153.05 C644.71,144.63 644.26,143.00 646.31,143.00 C649.09,143.00 652.43,136.72 652.42,131.50 C652.41,120.50 646.83,117.00 629.32,117.00 L 619.00 117.00 L 619.00 140.06 L 619.00 163.11 L 623.25 162.81 L 627.50 162.50 L 627.79 154.19 ZM 689.81 158.75 L 690.12 155.00 L 681.14 155.00 C669.14,155.00 669.00,154.92 669.00,148.43 L 669.00 143.07 L 678.75 142.79 L 688.50 142.50 L 688.81 139.25 L 689.13 136.00 L 679.06 136.00 L 669.00 136.00 L 669.00 130.13 L 669.00 124.25 L 678.68 124.07 C684.01,123.97 688.73,123.67 689.18,123.39 C689.63,123.11 690.00,121.56 690.00,119.94 L 690.00 117.00 L 675.00 117.00 L 660.00 117.00 L 660.00 140.03 L 660.00 163.05 L 674.75 162.78 L 689.50 162.50 L 689.81 158.75 ZM 346.75 199.43 C346.34,199.01 346.00,195.82 346.00,192.33 L 346.00 186.00 L 351.28 186.00 C358.32,186.00 361.00,187.91 361.00,192.93 C361.00,195.18 360.36,197.29 359.44,198.05 C357.66,199.52 347.89,200.59 346.75,199.43 ZM 392.53 202.81 C392.92,200.99 393.86,198.29 394.62,196.80 C395.38,195.32 396.12,193.30 396.27,192.30 C396.42,191.31 396.93,190.27 397.39,190.00 C398.47,189.36 401.72,197.58 402.16,202.07 L 402.50 205.50 L 397.16 205.81 L 391.82 206.11 L 392.53 202.81 ZM 435.00 200.50 L 435.00 186.00 L 438.98 186.00 C445.32,186.00 451.00,188.76 452.62,192.62 C454.39,196.87 454.39,204.14 452.61,208.40 C450.56,213.30 447.51,215.00 440.78,215.00 L 435.00 215.00 L 435.00 200.50 ZM 304.41 137.64 C304.13,136.89 304.03,133.63 304.20,130.39 L 304.50 124.50 L 309.69 124.54 C315.85,124.59 319.00,126.84 319.00,131.20 C319.00,135.76 315.06,139.00 309.51,139.00 C306.57,139.00 304.75,138.51 304.41,137.64 ZM 449.00 131.36 L 449.00 123.72 L 454.75 124.31 C458.96,124.75 460.97,125.48 462.25,127.06 C464.70,130.08 464.43,133.66 461.55,136.55 C459.59,138.50 458.07,139.00 454.05,139.00 L 449.00 139.00 L 449.00 131.36 ZM 586.50 154.32 C581.22,152.94 578.00,147.24 578.00,139.30 C578.01,132.13 580.56,127.50 585.68,125.36 C588.80,124.06 589.81,124.04 592.89,125.21 C598.23,127.24 601.00,132.01 601.00,139.20 C601.00,150.02 594.80,156.48 586.50,154.32 ZM 628.67 138.33 C628.30,137.97 628.00,134.59 628.00,130.83 L 628.00 124.00 L 632.25 124.00 C638.31,124.01 643.00,127.07 643.00,131.03 C643.00,135.69 639.14,139.00 633.71,139.00 C631.30,139.00 629.03,138.70 628.67,138.33 Z" fill="rgb(140,215,91)"/>
<path d="M 0.00 163.50 L 0.00 0.00 L 381.00 0.00 L 762.00 0.00 L 762.00 163.50 L 762.00 327.00 L 381.00 327.00 L 0.00 327.00 L 0.00 163.50 ZM 211.78 224.55 C212.57,223.77 209.66,218.64 206.54,215.34 C204.59,213.27 203.00,211.10 203.00,210.51 C203.00,209.93 202.21,208.73 201.25,207.87 C200.29,207.00 198.60,205.01 197.50,203.45 C194.75,199.53 189.24,192.22 185.80,187.91 L 182.93 184.33 L 190.79 176.40 L 198.65 168.46 L 200.46 159.81 C202.16,151.73 202.17,145.90 200.50,140.44 C200.02,138.89 200.47,138.11 202.33,137.26 C203.69,136.64 205.07,136.40 205.40,136.73 C205.73,137.06 206.01,152.45 206.02,170.92 C206.02,189.39 206.36,204.97 206.77,205.55 C207.17,206.12 209.07,207.69 211.00,209.02 C212.93,210.35 214.95,211.82 215.50,212.28 C218.63,214.88 232.18,224.00 232.91,224.00 C233.39,224.00 234.06,223.29 234.39,222.42 C234.73,221.55 235.00,202.42 235.00,179.92 L 235.00 139.00 L 249.49 139.00 L 263.97 139.00 L 266.60 134.84 C270.38,128.85 274.00,121.88 274.00,120.58 C274.00,119.97 275.11,117.83 276.46,115.84 L 278.93 112.21 L 276.71 111.62 C275.50,111.29 262.28,111.02 247.34,111.01 C218.13,111.00 198.89,112.69 191.50,115.91 C189.30,116.88 186.15,118.00 184.50,118.41 C178.04,120.02 163.45,129.88 156.43,137.38 C147.99,146.40 146.04,148.98 142.58,155.83 C136.33,168.19 133.49,182.81 134.93,195.22 C135.87,203.26 138.74,215.92 140.79,221.00 L 141.79 223.50 L 142.90 220.68 C143.50,219.14 144.00,216.21 143.99,214.18 C143.98,209.37 150.16,189.02 151.64,189.01 C152.62,189.00 166.49,205.96 169.50,210.83 C170.05,211.73 170.99,212.91 171.58,213.48 C172.18,214.04 174.33,216.84 176.38,219.69 C179.67,224.30 180.57,224.94 184.29,225.33 C188.36,225.76 211.21,225.11 211.78,224.55 ZM 315.77 204.79 L 316.04 186.09 L 323.27 185.79 L 330.50 185.50 L 330.81 182.25 L 331.13 179.00 L 312.06 179.00 L 293.00 179.00 L 293.00 182.50 L 293.00 186.00 L 300.00 186.00 L 307.00 186.00 L 307.00 205.06 L 307.00 224.11 L 311.25 223.81 L 315.50 223.50 L 315.77 204.79 ZM 345.79 215.69 L 346.09 207.89 L 350.20 208.19 C353.98,208.48 354.55,208.91 357.15,213.50 C360.04,218.58 360.63,219.82 361.47,222.50 C361.79,223.54 363.31,224.00 366.41,224.00 C373.10,224.00 373.11,224.25 365.75,210.76 L 363.17 206.02 L 365.95 204.03 C369.77,201.31 371.35,197.00 370.76,190.90 C370.38,186.90 369.60,185.14 367.12,182.66 L 363.97 179.50 L 350.48 179.17 L 337.00 178.85 L 337.00 201.48 L 337.00 224.11 L 341.25 223.81 L 345.50 223.50 L 345.79 215.69 ZM 385.69 222.75 C386.14,222.06 386.96,219.93 387.53,218.00 L 388.56 214.50 L 397.53 214.22 L 406.50 213.95 L 408.00 218.72 C409.42,223.25 409.71,223.52 413.38,223.82 C415.52,223.99 417.67,223.73 418.17,223.23 C418.72,222.68 417.65,218.36 415.48,212.41 C413.50,206.96 411.26,200.48 410.51,198.00 C409.77,195.52 408.07,190.35 406.75,186.50 L 404.34 179.50 L 397.81 179.21 L 391.28 178.91 L 389.09 185.21 C387.89,188.67 386.43,192.85 385.84,194.50 C385.26,196.15 384.08,199.52 383.23,202.00 C382.37,204.48 380.40,209.88 378.83,214.00 C377.27,218.12 375.99,222.06 375.99,222.75 C376.00,223.56 377.56,224.00 380.44,224.00 C382.90,224.00 385.24,223.44 385.69,222.75 ZM 452.74 221.04 C455.07,219.73 458.22,216.85 459.74,214.66 C462.27,211.01 462.50,209.91 462.47,201.59 C462.44,190.77 461.90,188.55 458.38,184.88 C453.67,179.96 450.29,179.00 437.60,179.00 L 426.00 179.00 L 426.00 200.92 C426.00,217.49 426.31,222.97 427.25,223.39 C427.94,223.70 433.00,223.84 438.50,223.70 C446.92,223.48 449.17,223.06 452.74,221.04 ZM 480.77 201.25 L 481.04 179.00 L 476.02 179.00 L 471.00 179.00 L 471.00 200.83 C471.00,212.84 471.32,222.99 471.71,223.38 C472.11,223.77 474.24,223.96 476.46,223.80 L 480.50 223.50 L 480.77 201.25 ZM 498.00 209.17 L 498.50 194.83 L 500.60 197.17 C501.76,198.45 503.00,200.18 503.37,201.00 C503.74,201.82 507.33,207.23 511.36,213.00 C518.53,223.30 518.74,223.50 522.58,223.50 L 526.50 223.50 L 526.77 201.25 L 527.04 179.00 L 522.52 179.00 L 518.00 179.00 L 518.00 191.94 C518.00,199.06 517.58,205.14 517.07,205.46 C516.33,205.91 509.60,196.79 503.50,187.06 C498.97,179.82 497.94,179.00 493.43,179.00 L 489.00 179.00 L 489.00 201.56 L 489.00 224.11 L 493.25 223.81 L 497.50 223.50 L 498.00 209.17 ZM 567.78 220.65 C572.59,217.32 574.63,212.80 574.90,204.84 L 575.10 199.18 L 566.30 199.34 L 557.50 199.50 L 557.19 203.25 L 556.88 207.00 L 561.44 207.00 C565.19,207.00 566.00,207.32 566.00,208.83 C566.00,211.49 561.81,215.00 557.89,215.61 C553.96,216.23 547.00,213.67 547.00,211.61 C547.00,210.86 546.33,209.68 545.50,209.00 C543.15,207.05 543.48,195.37 546.00,191.23 C549.84,184.94 559.30,184.26 563.97,189.94 C565.97,192.37 567.28,193.02 570.19,193.01 C574.84,193.00 575.52,191.90 573.41,187.82 C569.26,179.80 558.37,176.10 547.67,179.08 C534.21,182.81 529.66,205.57 540.02,217.37 C544.66,222.66 548.41,224.11 556.60,223.77 C562.48,223.53 564.41,222.99 567.78,220.65 ZM 109.35 221.25 C111.08,220.29 112.65,219.16 112.83,218.75 C113.02,218.34 113.70,218.00 114.36,218.00 C115.02,218.00 116.21,217.10 117.00,216.00 C117.79,214.90 118.79,214.00 119.21,214.00 C119.64,214.00 121.04,213.08 122.33,211.96 C123.62,210.84 126.21,209.09 128.09,208.07 C130.64,206.69 131.45,205.63 131.29,203.86 C129.99,189.32 129.95,184.79 131.07,179.00 C131.76,175.43 132.59,164.85 132.92,155.50 L 133.50 138.50 L 140.94 138.18 C148.32,137.86 148.42,137.82 153.94,132.77 C158.81,128.32 165.47,123.59 175.35,117.56 C178.09,115.89 178.13,115.78 176.26,114.47 C172.28,111.68 161.61,110.85 133.92,111.18 C118.84,111.35 105.94,111.86 105.25,112.31 C103.56,113.40 103.41,223.00 105.10,223.00 C105.70,223.00 107.61,222.21 109.35,221.25 ZM 303.79 154.25 L 304.08 146.00 L 307.47 146.00 C309.94,146.00 311.42,146.71 312.93,148.63 C314.07,150.08 315.00,151.81 315.00,152.46 C315.00,153.12 316.39,155.76 318.09,158.33 C320.89,162.54 321.56,163.00 325.04,163.00 C327.15,163.00 329.13,162.60 329.43,162.11 C329.74,161.62 327.96,157.56 325.49,153.08 L 320.99 144.95 L 324.40 141.53 C329.98,135.96 330.38,127.99 325.40,122.06 C322.08,118.12 317.67,117.01 305.25,117.01 L 295.00 117.00 L 295.00 140.06 L 295.00 163.11 L 299.25 162.81 L 303.50 162.50 L 303.79 154.25 ZM 345.77 139.75 L 346.04 117.00 L 341.02 117.00 L 336.00 117.00 L 336.00 139.33 C336.00,151.62 336.32,161.99 336.71,162.38 C337.11,162.77 339.24,162.96 341.46,162.80 L 345.50 162.50 L 345.77 139.75 ZM 382.81 153.00 C384.64,147.77 386.57,141.77 387.10,139.64 C387.63,137.52 388.65,134.60 389.38,133.14 C390.11,131.69 391.24,128.25 391.90,125.50 C392.55,122.75 393.33,119.71 393.61,118.75 C394.06,117.25 393.43,117.00 389.11,117.00 L 384.08 117.00 L 382.96 121.25 C382.34,123.59 380.52,129.15 378.92,133.60 C377.31,138.06 376.00,142.42 376.00,143.30 C376.00,145.47 373.88,150.00 372.86,150.00 C372.41,150.00 371.76,148.76 371.41,147.25 C370.71,144.17 365.56,127.78 363.24,121.25 L 361.73 117.00 L 356.45 117.00 L 351.18 117.00 L 353.47 123.25 C354.73,126.69 356.53,131.75 357.48,134.50 C358.42,137.25 361.04,144.81 363.29,151.29 L 367.39 163.09 L 373.43 162.79 L 379.48 162.50 L 382.81 153.00 ZM 430.50 158.65 L 430.50 154.79 L 420.50 154.65 L 410.50 154.50 L 410.50 149.00 L 410.50 143.50 L 420.00 143.00 L 429.50 142.50 L 429.81 139.29 L 430.12 136.07 L 420.31 135.79 L 410.50 135.50 L 410.50 130.00 L 410.50 124.50 L 420.75 124.22 L 431.00 123.93 L 431.00 120.47 L 431.00 117.00 L 416.00 117.00 L 401.00 117.00 L 401.00 139.33 C401.00,151.62 401.31,161.98 401.69,162.36 C402.07,162.74 408.71,162.93 416.44,162.78 L 430.50 162.50 L 430.50 158.65 ZM 448.79 154.19 L 449.08 145.88 L 452.71 146.19 C456.56,146.52 458.26,148.61 462.93,158.75 C464.80,162.81 465.09,163.00 469.28,163.00 C471.69,163.00 473.96,162.70 474.33,162.34 C474.69,161.98 472.93,157.91 470.42,153.31 L 465.86 144.93 L 468.87 142.12 C472.47,138.76 473.41,135.59 472.77,128.91 C471.86,119.52 467.08,117.02 450.00,117.00 L 439.50 117.00 L 439.79 140.05 L 440.07 163.11 L 444.29 162.81 L 448.50 162.50 L 448.79 154.19 ZM 508.89 159.97 C515.23,155.37 516.86,148.56 513.09,142.38 C511.48,139.74 509.75,138.81 501.95,136.38 C491.12,133.00 488.78,130.80 491.55,126.57 C492.92,124.47 494.02,124.00 497.53,124.00 C501.10,124.00 502.26,124.52 504.44,127.11 C506.73,129.83 507.48,130.13 510.53,129.56 C513.31,129.04 514.00,128.45 514.00,126.59 C514.00,122.97 510.70,119.65 505.14,117.65 C499.60,115.66 494.69,115.97 487.63,118.77 C482.16,120.95 479.70,127.53 481.64,134.78 C482.45,137.82 490.03,142.14 496.27,143.13 C501.25,143.92 506.00,147.08 506.00,149.60 C506.00,151.89 500.87,155.00 497.09,155.00 C493.08,155.00 489.00,152.70 489.00,150.44 C489.00,149.38 487.69,149.00 483.99,149.00 L 478.97 149.00 L 480.52 152.71 C483.65,160.20 488.35,162.94 498.10,162.98 C503.88,163.00 505.22,162.62 508.89,159.97 ZM 530.80 161.80 C531.55,161.05 532.00,157.30 532.00,151.76 L 532.00 142.93 L 541.75 143.21 L 551.50 143.50 L 551.79 153.31 L 552.07 163.11 L 556.29 162.81 L 560.50 162.50 L 560.77 139.75 L 561.04 117.00 L 556.56 117.00 L 552.08 117.00 L 551.79 126.25 L 551.50 135.50 L 541.75 135.79 L 532.00 136.07 L 532.00 126.54 L 532.00 117.00 L 527.00 117.00 L 522.00 117.00 L 522.00 139.33 C522.00,151.62 522.30,161.97 522.67,162.33 C523.79,163.45 529.52,163.08 530.80,161.80 ZM 600.63 159.66 C609.41,153.61 613.03,141.85 609.52,130.70 C607.36,123.84 603.22,119.72 596.17,117.44 C586.66,114.36 576.36,118.12 571.48,126.44 C569.01,130.67 568.83,131.70 569.15,140.33 C569.56,151.19 571.47,155.05 578.92,160.04 C582.64,162.53 584.33,163.00 589.56,163.00 C594.98,163.00 596.41,162.57 600.63,159.66 ZM 627.79 154.19 L 628.08 145.88 L 631.78 146.19 C635.30,146.48 635.71,146.91 639.96,154.75 C644.34,162.80 644.54,163.00 648.16,163.00 C650.21,163.00 652.17,162.53 652.53,161.95 C652.88,161.38 651.34,157.37 649.09,153.05 C644.71,144.63 644.26,143.00 646.31,143.00 C649.09,143.00 652.43,136.72 652.42,131.50 C652.41,120.50 646.83,117.00 629.32,117.00 L 619.00 117.00 L 619.00 140.06 L 619.00 163.11 L 623.25 162.81 L 627.50 162.50 L 627.79 154.19 ZM 689.81 158.75 L 690.12 155.00 L 681.14 155.00 C669.14,155.00 669.00,154.92 669.00,148.43 L 669.00 143.07 L 678.75 142.79 L 688.50 142.50 L 688.81 139.25 L 689.13 136.00 L 679.06 136.00 L 669.00 136.00 L 669.00 130.13 L 669.00 124.25 L 678.68 124.07 C684.01,123.97 688.73,123.67 689.18,123.39 C689.63,123.11 690.00,121.56 690.00,119.94 L 690.00 117.00 L 675.00 117.00 L 660.00 117.00 L 660.00 140.03 L 660.00 163.05 L 674.75 162.78 L 689.50 162.50 L 689.81 158.75 ZM 346.75 199.43 C346.34,199.01 346.00,195.82 346.00,192.33 L 346.00 186.00 L 351.28 186.00 C358.32,186.00 361.00,187.91 361.00,192.93 C361.00,195.18 360.36,197.29 359.44,198.05 C357.66,199.52 347.89,200.59 346.75,199.43 ZM 392.53 202.81 C392.92,200.99 393.86,198.29 394.62,196.80 C395.38,195.32 396.12,193.30 396.27,192.30 C396.42,191.31 396.93,190.27 397.39,190.00 C398.47,189.36 401.72,197.58 402.16,202.07 L 402.50 205.50 L 397.16 205.81 L 391.82 206.11 L 392.53 202.81 ZM 435.00 200.50 L 435.00 186.00 L 438.98 186.00 C445.32,186.00 451.00,188.76 452.62,192.62 C454.39,196.87 454.39,204.14 452.61,208.40 C450.56,213.30 447.51,215.00 440.78,215.00 L 435.00 215.00 L 435.00 200.50 ZM 304.41 137.64 C304.13,136.89 304.03,133.63 304.20,130.39 L 304.50 124.50 L 309.69 124.54 C315.85,124.59 319.00,126.84 319.00,131.20 C319.00,135.76 315.06,139.00 309.51,139.00 C306.57,139.00 304.75,138.51 304.41,137.64 ZM 449.00 131.36 L 449.00 123.72 L 454.75 124.31 C458.96,124.75 460.97,125.48 462.25,127.06 C464.70,130.08 464.43,133.66 461.55,136.55 C459.59,138.50 458.07,139.00 454.05,139.00 L 449.00 139.00 L 449.00 131.36 ZM 586.50 154.32 C581.22,152.94 578.00,147.24 578.00,139.30 C578.01,132.13 580.56,127.50 585.68,125.36 C588.80,124.06 589.81,124.04 592.89,125.21 C598.23,127.24 601.00,132.01 601.00,139.20 C601.00,150.02 594.80,156.48 586.50,154.32 ZM 628.67 138.33 C628.30,137.97 628.00,134.59 628.00,130.83 L 628.00 124.00 L 632.25 124.00 C638.31,124.01 643.00,127.07 643.00,131.03 C643.00,135.69 639.14,139.00 633.71,139.00 C631.30,139.00 629.03,138.70 628.67,138.33 Z" fill="rgb(216,224,231)"/>
<path d="M 0.00 163.50 L 0.00 0.00 L 381.00 0.00 L 762.00 0.00 L 762.00 163.50 L 762.00 327.00 L 381.00 327.00 L 0.00 327.00 L 0.00 163.50 ZM 211.78 224.55 C212.57,223.77 209.66,218.64 206.54,215.34 C204.59,213.27 203.00,211.10 203.00,210.51 C203.00,209.93 202.21,208.73 201.25,207.87 C200.29,207.00 198.60,205.01 197.50,203.45 C194.75,199.53 189.24,192.22 185.80,187.91 L 182.93 184.33 L 190.79 176.40 L 198.65 168.46 L 200.43 159.48 C202.67,148.18 202.72,148.00 203.97,148.00 C204.65,148.00 205.00,157.45 205.00,176.07 C205.00,197.22 205.31,204.44 206.25,205.35 C206.94,206.02 209.07,207.66 211.00,209.01 C212.93,210.35 214.95,211.82 215.50,212.28 C218.63,214.88 232.18,224.00 232.91,224.00 C233.39,224.00 234.06,223.29 234.39,222.42 C234.73,221.55 235.00,202.42 235.00,179.92 L 235.00 139.00 L 249.49 139.00 L 263.97 139.00 L 266.60 134.84 C270.38,128.85 274.00,121.88 274.00,120.58 C274.00,119.97 275.11,117.83 276.46,115.84 L 278.93 112.21 L 276.71 111.62 C275.50,111.29 262.28,111.02 247.34,111.01 C218.13,111.00 198.89,112.69 191.50,115.91 C189.30,116.88 186.15,118.00 184.50,118.41 C178.04,120.02 163.45,129.88 156.43,137.38 C145.56,148.99 141.70,155.26 137.99,167.33 C133.49,182.01 133.44,194.03 137.84,211.00 C141.49,225.09 142.72,225.95 143.90,215.19 C144.42,210.37 144.79,209.64 146.75,209.50 C149.45,209.30 148.88,209.99 153.07,201.75 C154.96,198.04 156.74,195.01 157.03,195.00 C157.53,195.00 167.44,207.60 169.50,210.87 C170.05,211.74 170.99,212.91 171.58,213.48 C172.18,214.04 174.33,216.84 176.38,219.69 C179.67,224.30 180.57,224.94 184.29,225.33 C188.36,225.76 211.21,225.11 211.78,224.55 ZM 315.77 204.79 L 316.04 186.09 L 323.27 185.79 L 330.50 185.50 L 330.81 182.25 L 331.13 179.00 L 312.06 179.00 L 293.00 179.00 L 293.00 182.50 L 293.00 186.00 L 300.00 186.00 L 307.00 186.00 L 307.00 205.06 L 307.00 224.11 L 311.25 223.81 L 315.50 223.50 L 315.77 204.79 ZM 345.79 215.69 L 346.09 207.89 L 350.20 208.19 C353.98,208.48 354.55,208.91 357.15,213.50 C360.04,218.58 360.63,219.82 361.47,222.50 C361.79,223.54 363.31,224.00 366.41,224.00 C373.10,224.00 373.11,224.25 365.75,210.76 L 363.17 206.02 L 365.95 204.03 C369.77,201.31 371.35,197.00 370.76,190.90 C370.38,186.90 369.60,185.14 367.12,182.66 L 363.97 179.50 L 350.48 179.17 L 337.00 178.85 L 337.00 201.48 L 337.00 224.11 L 341.25 223.81 L 345.50 223.50 L 345.79 215.69 ZM 385.69 222.75 C386.14,222.06 386.96,219.93 387.53,218.00 L 388.56 214.50 L 397.53 214.22 L 406.50 213.95 L 408.00 218.72 C409.42,223.25 409.71,223.52 413.38,223.82 C415.52,223.99 417.67,223.73 418.17,223.23 C418.72,222.68 417.65,218.36 415.48,212.41 C413.50,206.96 411.26,200.48 410.51,198.00 C409.77,195.52 408.07,190.35 406.75,186.50 L 404.34 179.50 L 397.81 179.21 L 391.28 178.91 L 389.09 185.21 C387.89,188.67 386.43,192.85 385.84,194.50 C385.26,196.15 384.08,199.52 383.23,202.00 C382.37,204.48 380.40,209.88 378.83,214.00 C377.27,218.12 375.99,222.06 375.99,222.75 C376.00,223.56 377.56,224.00 380.44,224.00 C382.90,224.00 385.24,223.44 385.69,222.75 ZM 452.74 221.04 C455.07,219.73 458.22,216.85 459.74,214.66 C462.27,211.01 462.50,209.91 462.47,201.59 C462.44,190.77 461.90,188.55 458.38,184.88 C453.67,179.96 450.29,179.00 437.60,179.00 L 426.00 179.00 L 426.00 200.92 C426.00,217.49 426.31,222.97 427.25,223.39 C427.94,223.70 433.00,223.84 438.50,223.70 C446.92,223.48 449.17,223.06 452.74,221.04 ZM 480.77 201.25 L 481.04 179.00 L 476.02 179.00 L 471.00 179.00 L 471.00 200.83 C471.00,212.84 471.32,222.99 471.71,223.38 C472.11,223.77 474.24,223.96 476.46,223.80 L 480.50 223.50 L 480.77 201.25 ZM 498.00 209.17 L 498.50 194.83 L 500.60 197.17 C501.76,198.45 503.00,200.18 503.37,201.00 C503.74,201.82 507.33,207.23 511.36,213.00 C518.53,223.30 518.74,223.50 522.58,223.50 L 526.50 223.50 L 526.77 201.25 L 527.04 179.00 L 522.52 179.00 L 518.00 179.00 L 518.00 191.94 C518.00,199.06 517.58,205.14 517.07,205.46 C516.33,205.91 509.60,196.79 503.50,187.06 C498.97,179.82 497.94,179.00 493.43,179.00 L 489.00 179.00 L 489.00 201.56 L 489.00 224.11 L 493.25 223.81 L 497.50 223.50 L 498.00 209.17 ZM 567.78 220.65 C572.59,217.32 574.63,212.80 574.90,204.84 L 575.10 199.18 L 566.30 199.34 L 557.50 199.50 L 557.19 203.25 L 556.88 207.00 L 561.44 207.00 C565.19,207.00 566.00,207.32 566.00,208.83 C566.00,211.49 561.81,215.00 557.89,215.61 C553.96,216.23 547.00,213.67 547.00,211.61 C547.00,210.86 546.33,209.68 545.50,209.00 C543.15,207.05 543.48,195.37 546.00,191.23 C549.84,184.94 559.30,184.26 563.97,189.94 C565.97,192.37 567.28,193.02 570.19,193.01 C574.84,193.00 575.52,191.90 573.41,187.82 C569.26,179.80 558.37,176.10 547.67,179.08 C534.21,182.81 529.66,205.57 540.02,217.37 C544.66,222.66 548.41,224.11 556.60,223.77 C562.48,223.53 564.41,222.99 567.78,220.65 ZM 109.35 221.25 C111.08,220.29 112.65,219.16 112.83,218.75 C113.02,218.34 113.70,218.00 114.36,218.00 C115.02,218.00 116.21,217.10 117.00,216.00 C117.79,214.90 118.79,214.00 119.21,214.00 C119.64,214.00 121.04,213.08 122.33,211.96 C123.62,210.84 126.21,209.09 128.09,208.07 C130.64,206.69 131.45,205.63 131.29,203.86 C129.99,189.32 129.95,184.79 131.07,179.00 C131.76,175.43 132.59,164.85 132.92,155.50 L 133.50 138.50 L 140.94 138.18 C148.32,137.86 148.42,137.82 153.94,132.77 C158.81,128.32 165.47,123.59 175.35,117.56 C178.09,115.89 178.13,115.78 176.26,114.47 C172.28,111.68 161.61,110.85 133.92,111.18 C118.84,111.35 105.94,111.86 105.25,112.31 C103.56,113.40 103.41,223.00 105.10,223.00 C105.70,223.00 107.61,222.21 109.35,221.25 ZM 303.79 154.25 L 304.08 146.00 L 307.47 146.00 C309.94,146.00 311.42,146.71 312.93,148.63 C314.07,150.08 315.00,151.81 315.00,152.46 C315.00,153.12 316.39,155.76 318.09,158.33 C320.89,162.54 321.56,163.00 325.04,163.00 C327.15,163.00 329.13,162.60 329.43,162.11 C329.74,161.62 327.96,157.56 325.49,153.08 L 320.99 144.95 L 324.40 141.53 C329.98,135.96 330.38,127.99 325.40,122.06 C322.08,118.12 317.67,117.01 305.25,117.01 L 295.00 117.00 L 295.00 140.06 L 295.00 163.11 L 299.25 162.81 L 303.50 162.50 L 303.79 154.25 ZM 345.77 139.75 L 346.04 117.00 L 341.02 117.00 L 336.00 117.00 L 336.00 139.33 C336.00,151.62 336.32,161.99 336.71,162.38 C337.11,162.77 339.24,162.96 341.46,162.80 L 345.50 162.50 L 345.77 139.75 ZM 382.81 153.00 C384.64,147.77 386.57,141.77 387.10,139.64 C387.63,137.52 388.65,134.60 389.38,133.14 C390.11,131.69 391.24,128.25 391.90,125.50 C392.55,122.75 393.33,119.71 393.61,118.75 C394.06,117.25 393.43,117.00 389.11,117.00 L 384.08 117.00 L 382.96 121.25 C382.34,123.59 380.52,129.15 378.92,133.60 C377.31,138.06 376.00,142.42 376.00,143.30 C376.00,145.47 373.88,150.00 372.86,150.00 C372.41,150.00 371.76,148.76 371.41,147.25 C370.71,144.17 365.56,127.78 363.24,121.25 L 361.73 117.00 L 356.45 117.00 L 351.18 117.00 L 353.47 123.25 C354.73,126.69 356.53,131.75 357.48,134.50 C358.42,137.25 361.04,144.81 363.29,151.29 L 367.39 163.09 L 373.43 162.79 L 379.48 162.50 L 382.81 153.00 ZM 430.50 158.65 L 430.50 154.79 L 420.50 154.65 L 410.50 154.50 L 410.50 149.00 L 410.50 143.50 L 420.00 143.00 L 429.50 142.50 L 429.81 139.29 L 430.12 136.07 L 420.31 135.79 L 410.50 135.50 L 410.50 130.00 L 410.50 124.50 L 420.75 124.22 L 431.00 123.93 L 431.00 120.47 L 431.00 117.00 L 416.00 117.00 L 401.00 117.00 L 401.00 139.33 C401.00,151.62 401.31,161.98 401.69,162.36 C402.07,162.74 408.71,162.93 416.44,162.78 L 430.50 162.50 L 430.50 158.65 ZM 448.79 154.19 L 449.08 145.88 L 452.71 146.19 C456.56,146.52 458.26,148.61 462.93,158.75 C464.80,162.81 465.09,163.00 469.28,163.00 C471.69,163.00 473.96,162.70 474.33,162.34 C474.69,161.98 472.93,157.91 470.42,153.31 L 465.86 144.93 L 468.87 142.12 C472.47,138.76 473.41,135.59 472.77,128.91 C471.86,119.52 467.08,117.02 450.00,117.00 L 439.50 117.00 L 439.79 140.05 L 440.07 163.11 L 444.29 162.81 L 448.50 162.50 L 448.79 154.19 ZM 508.89 159.97 C515.23,155.37 516.86,148.56 513.09,142.38 C511.48,139.74 509.75,138.81 501.95,136.38 C491.12,133.00 488.78,130.80 491.55,126.57 C492.92,124.47 494.02,124.00 497.53,124.00 C501.10,124.00 502.26,124.52 504.44,127.11 C506.73,129.83 507.48,130.13 510.53,129.56 C513.31,129.04 514.00,128.45 514.00,126.59 C514.00,122.97 510.70,119.65 505.14,117.65 C499.60,115.66 494.69,115.97 487.63,118.77 C482.16,120.95 479.70,127.53 481.64,134.78 C482.45,137.82 490.03,142.14 496.27,143.13 C501.25,143.92 506.00,147.08 506.00,149.60 C506.00,151.89 500.87,155.00 497.09,155.00 C493.08,155.00 489.00,152.70 489.00,150.44 C489.00,149.38 487.69,149.00 483.99,149.00 L 478.97 149.00 L 480.52 152.71 C483.65,160.20 488.35,162.94 498.10,162.98 C503.88,163.00 505.22,162.62 508.89,159.97 ZM 530.80 161.80 C531.55,161.05 532.00,157.30 532.00,151.76 L 532.00 142.93 L 541.75 143.21 L 551.50 143.50 L 551.79 153.31 L 552.07 163.11 L 556.29 162.81 L 560.50 162.50 L 560.77 139.75 L 561.04 117.00 L 556.56 117.00 L 552.08 117.00 L 551.79 126.25 L 551.50 135.50 L 541.75 135.79 L 532.00 136.07 L 532.00 126.54 L 532.00 117.00 L 527.00 117.00 L 522.00 117.00 L 522.00 139.33 C522.00,151.62 522.30,161.97 522.67,162.33 C523.79,163.45 529.52,163.08 530.80,161.80 ZM 600.63 159.66 C609.41,153.61 613.03,141.85 609.52,130.70 C607.36,123.84 603.22,119.72 596.17,117.44 C586.66,114.36 576.36,118.12 571.48,126.44 C569.01,130.67 568.83,131.70 569.15,140.33 C569.56,151.19 571.47,155.05 578.92,160.04 C582.64,162.53 584.33,163.00 589.56,163.00 C594.98,163.00 596.41,162.57 600.63,159.66 ZM 627.79 154.19 L 628.08 145.88 L 631.78 146.19 C635.30,146.48 635.71,146.91 639.96,154.75 C644.34,162.80 644.54,163.00 648.16,163.00 C650.21,163.00 652.17,162.53 652.53,161.95 C652.88,161.38 651.34,157.37 649.09,153.05 C644.71,144.63 644.26,143.00 646.31,143.00 C649.09,143.00 652.43,136.72 652.42,131.50 C652.41,120.50 646.83,117.00 629.32,117.00 L 619.00 117.00 L 619.00 140.06 L 619.00 163.11 L 623.25 162.81 L 627.50 162.50 L 627.79 154.19 ZM 689.81 158.75 L 690.12 155.00 L 681.14 155.00 C669.14,155.00 669.00,154.92 669.00,148.43 L 669.00 143.07 L 678.75 142.79 L 688.50 142.50 L 688.81 139.25 L 689.13 136.00 L 679.06 136.00 L 669.00 136.00 L 669.00 130.13 L 669.00 124.25 L 678.68 124.07 C684.01,123.97 688.73,123.67 689.18,123.39 C689.63,123.11 690.00,121.56 690.00,119.94 L 690.00 117.00 L 675.00 117.00 L 660.00 117.00 L 660.00 140.03 L 660.00 163.05 L 674.75 162.78 L 689.50 162.50 L 689.81 158.75 ZM 346.75 199.43 C346.34,199.01 346.00,195.82 346.00,192.33 L 346.00 186.00 L 351.28 186.00 C358.32,186.00 361.00,187.91 361.00,192.93 C361.00,195.18 360.36,197.29 359.44,198.05 C357.66,199.52 347.89,200.59 346.75,199.43 ZM 392.53 202.81 C392.92,200.99 393.86,198.29 394.62,196.80 C395.38,195.32 396.12,193.30 396.27,192.30 C396.42,191.31 396.93,190.27 397.39,190.00 C398.47,189.36 401.72,197.58 402.16,202.07 L 402.50 205.50 L 397.16 205.81 L 391.82 206.11 L 392.53 202.81 ZM 435.00 200.50 L 435.00 186.00 L 438.98 186.00 C445.32,186.00 451.00,188.76 452.62,192.62 C454.39,196.87 454.39,204.14 452.61,208.40 C450.56,213.30 447.51,215.00 440.78,215.00 L 435.00 215.00 L 435.00 200.50 ZM 304.41 137.64 C304.13,136.89 304.03,133.63 304.20,130.39 L 304.50 124.50 L 309.69 124.54 C315.85,124.59 319.00,126.84 319.00,131.20 C319.00,135.76 315.06,139.00 309.51,139.00 C306.57,139.00 304.75,138.51 304.41,137.64 ZM 449.00 131.36 L 449.00 123.72 L 454.75 124.31 C458.96,124.75 460.97,125.48 462.25,127.06 C464.70,130.08 464.43,133.66 461.55,136.55 C459.59,138.50 458.07,139.00 454.05,139.00 L 449.00 139.00 L 449.00 131.36 ZM 586.50 154.32 C581.22,152.94 578.00,147.24 578.00,139.30 C578.01,132.13 580.56,127.50 585.68,125.36 C588.80,124.06 589.81,124.04 592.89,125.21 C598.23,127.24 601.00,132.01 601.00,139.20 C601.00,150.02 594.80,156.48 586.50,154.32 ZM 628.67 138.33 C628.30,137.97 628.00,134.59 628.00,130.83 L 628.00 124.00 L 632.25 124.00 C638.31,124.01 643.00,127.07 643.00,131.03 C643.00,135.69 639.14,139.00 633.71,139.00 C631.30,139.00 629.03,138.70 628.67,138.33 Z" fill="rgb(254,254,254)"/>
</g>
</svg>